<?xml version="1.0" encoding="utf-8"?>
<!-- Generator: Adobe Illustrator 26.0.2, SVG Export Plug-In . SVG Version: 6.00 Build 0)  -->
<svg version="1.1" id="Layer_1" xmlns="http://www.w3.org/2000/svg" xmlns:xlink="http://www.w3.org/1999/xlink" x="0px" y="0px"
	 viewBox="0 0 750 705.1" style="enable-background:new 0 0 750 705.1;" xml:space="preserve">
<style type="text/css">
	.st0{fill:none;stroke:#0A2A42;stroke-width:3;stroke-miterlimit:10;}
	.st1{fill:none;stroke:#CCDDE2;stroke-width:4.23;stroke-miterlimit:10;}
	.st2{fill:none;stroke:#CCDDE2;stroke-width:5.05;stroke-miterlimit:10;}
	.st3{fill:#0078FF;stroke:#0A2A42;stroke-width:2;stroke-miterlimit:10;}
	.st4{fill:#FF4359;}
	.st5{fill:#2E2E2E;}
	.st6{fill:#0A2A42;stroke:#0A2A42;stroke-width:3;stroke-miterlimit:10;}
	.st7{fill:#0A2A42;}
	.st8{fill:#937BCF;stroke:#0A2A42;stroke-miterlimit:10;}
	.st9{fill:#FE566A;stroke:#0A2A42;stroke-miterlimit:10;}
	.st10{fill:#3FBDF1;stroke:#0A2A42;stroke-miterlimit:10;}
	.st11{fill:#6ACFC9;stroke:#0A2A42;stroke-miterlimit:10;}
	.st12{fill:#FF8A25;}
	.st13{fill:#FFFFFF;}
	.st14{fill:#00ECC2;}
	.st15{fill:#FFFFFF;stroke:#0A2A42;stroke-width:0.25;stroke-miterlimit:10;}
	.st16{stroke:#0A2A42;stroke-width:0.25;stroke-miterlimit:10;}
</style>
<path class="st0" d="M247.3,651.9h-85.8c-3,0-5.3,2.4-5.3,5.3c0,3,2.4,5.3,5.3,5.3h85.8c3,0,5.3-2.4,5.3-5.3
	C252.6,654.3,250.3,651.9,247.3,651.9z"/>
<path class="st0" d="M281.9,662.4h285.5"/>
<g>
	<path class="st1" d="M173.3,326.4c22.6-31.5,56.4-45.9,56.4-45.9c1.1-0.4-3.6-43.7-3.7-46.7c-1.4-50.5,6.9-103,44.9-139.4
		C318.2,48.8,402,34.2,456.4,72.6c16-3.2,15-7.8,21.7-11c10.2-6.1,21.6-9.8,33.5-10.6c47.6-3.4,91.3,34,109.2,79.2
		s13.7,148.3-19,178.1"/>
	<path class="st1" d="M153,381.1c1.2-12.4,4.4-24.6,9.4-36c0.4-1.1,1-2.2,1.5-3.2"/>
	<path class="st2" d="M211.8,512.4c-5.5-4.9-10.5-10.1-15.3-15.1"/>
	<path class="st3" d="M669,364.2c0,3.4,0,6.9-0.2,10.4c-1,21.7-5.6,44.1-17.2,62.3c-2.1,3.4-4.5,6.6-7,9.7
		c-24.7-3.3-28.4-28.4-56.9-42.7c-34.2-17.1-90.2-11-90.2-11l27.5-25.5c-1.4-76.6-57.7-72-57.7-72l-2.9,7c2.2-6.4,4.4-12.3,6.6-17.8
		l0.1-0.3c26-64.7,53.1-72.7,74.1-82.1c5-1.2,10.2-1.8,15.4-1.9c53.6-0.3,85.2,54.4,99,98.4c3.4,11,8.7,34.4,9.4,60.8
		C668.8,361.2,669,362.6,669,364.2z"/>
	<path class="st4" d="M699.1,651.3c-4.2,5.7-11.1,8.9-18.1,8.9h-81.4c-3.2,0-6.3-0.5-9.1-1.8c-2.9-1.2-5.5-3.1-7.6-5.4l0,0
		c-0.3-0.3-0.5-0.7-0.8-0.9c-2.5-3.2-4.2-7-4.6-11.1c-0.4-3.7,2.3-7,6-6.8c1.4,0,2.7,0.7,3.8,1.5c1,1,1.6,2.3,1.8,3.7
		c0,0.3,0.1,0.5,0.1,0.9c0.3,1.6,1,3.3,2.1,4.5c1,1.1,2.2,2.1,3.5,2.6c1.3,0.7,2.9,0.9,4.4,0.9h82.1c1.4,0,3-0.2,4.3-0.9
		c1.3-0.5,2.5-1.4,3.5-2.5c1.1-1.3,1.9-2.9,2.2-4.5s0.2-3.4-0.3-4.9l-36.6-109.1c-0.3-0.9-0.7-1.6-1.1-2.4
		c-2.2-4.5-5.6-8.3-9.9-11.1c-4.3-2.6-9.2-4.1-14.3-3.9c-15.5,0.2-35,0.2-36.9,0.2c-41.1-0.1-59.8-0.1-70.1,0.1
		c0.7-2.5,2-4.8,3.7-6.8c0,0,0,0,0-0.1c2.5-2.6,5.9-4.3,9.5-4.5c15.3-1.2,30.3-3.5,45-7.5c25.9-7,50.5-19,67.7-38.4
		c8.3-9.3,14.6-20.3,18.5-32.3c3-9.4,4.9-19.2,5.6-29.2c0.2-3.2,0.4-6.3,0.5-9.4V381c0-0.8,0-1.4,0-2.2c0.1-4.5-0.1-9-0.7-13.5
		c4.5,0,8.8,1.8,12,4.9c0.3,0.8,0.4,1.5,0.7,2.3c0.1,0.8,0.2,1.5,0.2,2.2v88.6c0,6-1.2,12.1-3.5,17.7s-5.7,10.6-10.1,14.9
		c-7.1,7-9.1,17.8-5.8,27.2L702,631.9c1.1,3.3,1.4,6.7,0.9,10.1C702.5,645.3,701.1,648.5,699.1,651.3z"/>
	<path class="st5" d="M196.6,648.6V399.9h15.3v248.7H196.6z"/>
	<path class="st0" d="M497.4,392.8c10.9-1.2,23.5-2.5,35.5-2.3"/>
	<path class="st0" d="M438,403.8c-19.3,4.8-38.1,11.8-54.1,23.6c-26.9,19.5-39.2,56.1-28.2,87.8L399,639.8h-11.4
		c-2.4,0-4.8,0.4-7.1,1.4c-2.3,1-4.3,2.3-6,4.1c-3.4,3.4-5,9-5,14.2h102.4l-38.8-127.2c-1-3.2-1.2-6.5-0.7-9.7s1.9-6.3,3.8-8.9
		c2-2.6,4.5-4.8,7.5-6.3c3-1.4,6.1-2.2,9.4-2.2c22.2,0.7,42.7,1.4,65.2,0.5"/>
	<path class="st0" d="M669.1,375.6v-0.1c-1-26.8-2.3-53.1-9.7-76.5c-13.8-44-45.3-98.7-99-98.4c-5.2,0-10.3,0.7-15.4,1.9
		c-35.4,8.4-60,44.7-74.1,82.1l-0.1,0.3c-1.3,3.6-2.6,7.1-3.7,10.8c-0.8,2.4-1.8,4.7-2.9,7c-4.3,8.7-11.2,15.9-19.6,20.6
		s-18.2,6.8-27.9,5.9c-65-6-150.5-9.4-177.5,36.2"/>
	<path class="st0" d="M562.8,325.9c-9.4,11.4-19.4,22.5-29.7,33.1c-21.1,21.8-39.3,45.1-72,46.6c-26.1,1.2-50.9-8.8-75.6-15.7
		c-26.4-7.5-39.7-13.4-64.4-20.8c-7.1-2.2-14.5-3.3-21.8-3.4l-24.8,0.2"/>
	<path class="st0" d="M466.1,641.4c2.3-1.1,4.9-1.6,7.5-1.5H485c0,0-23.8-46.3-42.9-77.1"/>
	<path class="st0" d="M481.8,505.7l79.7,154.5h-90.1H455"/>
	<path class="st0" d="M699.1,651.3c-4.2,5.7-11.1,8.9-18.1,8.9h-81.4c-6.8,0-13.4-2.7-17.6-8.1c-2.5-3.2-4.2-7-4.6-11
		c-0.4-3.7,2.3-7,6-6.9c1.4,0,2.7,0.7,3.8,1.6c1,1,1.6,2.3,1.8,3.7c0.2,2,1,3.8,2.2,5.4c1,1.1,2.2,2,3.6,2.6
		c1.3,0.7,2.9,0.9,4.4,0.9h82.2c1.4,0,3-0.2,4.3-0.9c1.3-0.5,2.5-1.4,3.5-2.5c1.1-1.3,1.9-2.9,2.2-4.5s0.2-3.4-0.3-4.9l-36.6-109.1
		c-1.9-5.2-5.3-9.7-9.8-12.7c-4.5-3.2-9.9-4.8-15.4-4.7c-15.5,0.2-35,0.2-36.9,0.2c-45.8-0.1-63.7-0.1-73.3,0.2
		c-0.1,0-0.3,0-0.4-0.1c-0.1-0.1-0.2-0.1-0.3-0.2s-0.2-0.2-0.2-0.3c-0.1-0.1-0.1-0.3-0.1-0.4c0-4.3,1.5-8.3,4.4-11.5l0,0l0,0
		c2.5-2.6,5.9-4.3,9.7-4.5c15.3-1.2,30.3-3.5,45-7.5c25.9-7,50.5-19,67.7-38.4c8.3-9.3,14.6-20.3,18.5-32.3c3-9.4,4.8-19.2,5.6-29.2
		c0.2-3.2,0.4-6.3,0.4-9.4v-0.1c0-0.8,0-1.4,0-2.2c0.1-4.5-0.1-9-0.7-13.5c7.5,0,15,5.4,16.2,12.9c0.1,0.8,0.2,1.5,0.2,2.2v88.6
		c0,6-1.2,12.1-3.5,17.7s-5.7,10.6-10.1,14.9c-7.1,7-9.1,17.8-5.8,27.2L702.2,632c1.1,3.3,1.4,6.7,0.9,10.1
		C702.4,645.3,701.1,648.5,699.1,651.3z"/>
	<path class="st0" d="M307.8,381.1H95.5c-5.2,0-9.4,4.2-9.4,9.4l0,0c0,5.2,4.2,9.4,9.4,9.4h212.2c5.2,0,9.4-4.2,9.4-9.4l0,0
		C317.1,385.3,312.9,381.1,307.8,381.1z"/>
	<path class="st6" d="M184.8,372.6v1c0.1,6.5,6.3,7.5,11.5,7.6l102-0.1c4.5,0,8.1-3.4,8.1-7.7v-0.2c-0.1-4.1-3.7-7.5-8.1-7.5
		c0,0-57.1-0.2-101.4-0.3c-0.8,2.3-2.9,4.1-5.4,5.6C189.6,372.2,187.2,372.7,184.8,372.6z"/>
	<path class="st6" d="M128.6,281c0,1.1,0.3,2.2,0.9,3.1l47.3,79.4c0.7,1,1.4,1.8,2.4,2.4c1,0.7,2,1.1,3.1,1.2
		c1.9,0.3,3.8,0.1,5.6-0.7c2.9-1.3,4.6-3.8,4.5-6.5c0-0.3,0-0.7-0.1-1c-0.1-0.8-0.4-1.4-0.8-2.1l-47.3-79.4
		c-2.1-3.5-7.1-4.8-11.1-3.1C130.2,275.7,128.5,278.4,128.6,281z"/>
	<path class="st0" d="M256.5,365.8c0,0,5.7-5.4,18.8-14"/>
	<path class="st0" d="M303,276.6l-20.7,23c-1.4,1.6-3.4,2.6-5.6,2.7c-2.2,0.2-4.3-0.5-5.9-1.9c-0.9-0.8-1.6-1.6-2.2-2.7
		c-0.5-1.1-0.9-2.2-0.9-3.4s0.1-2.4,0.5-3.5s1.1-2.1,2-3l3.8-3.7c0.1-0.2,0.3-0.4,0.4-0.5l2.7-3.1l23.6-25.7
		c2.9-3.2,6.5-5.5,10.5-6.9s8.3-1.8,12.5-1.1l0.3,0.1"/>
	<path class="st0" d="M332.2,282.9h-20.7c-2.4,0-4.6-1-6.3-2.6c-1.6-1.6-2.6-3.9-2.6-6.3c0-2.3,1-4.6,2.6-6.3s3.9-2.6,6.3-2.6h29.4"
		/>
	<path class="st0" d="M316.3,282.9c-0.3,3.6-1.6,6.4-3.7,8.2c-5.3,4.8-14.9,4.3-21.7,1"/>
	<path class="st0" d="M277.2,280.7c-5.9-7.2-4.7-17-0.1-24.6c19.2-31.3,55.7-12.1,79.8,1.4c14.3,8.1,28,17.2,40.9,27.3
		c11.4,8.9,22.1,19.5,35.8,24.9c8.2,3.2,18,3.9,26.1,0.2"/>
	<path class="st0" d="M312.6,291.1c14.5,10.8,28.3,22.3,41.5,34.6"/>
	<path class="st7" d="M488.9,122.8c3.5,3.2,8.8,3.3,13.2,3c5.6-0.5,11.2-1.9,16.8-3.1l3.4-0.2l0,0c0.7,0,1.3,0.1,1.9,0.4
		c0.5,0.2,1.1,0.7,1.5,1.1s0.8,1,1.1,1.6c0.2,0.5,0.3,1.2,0.3,1.9c0.1,7.2-0.7,14.5-2.2,21.5l6.5,3.5c0.9-2.3-0.1-5.7,1.9-5.9
		c1.2-2.3,3.2-3.8,6-2.1c5.8,3.4,8,13.5,2.5,18.1l3.5,6.7c1.2,2.3,3.3,4.2,5.7,5.2s5.2,1.1,7.7,0.3l-3.6-8c8.6,1.5,14.5-9.1,12-15.7
		c-1.8-4.5-1.6-7.9,0.7-12.3c0.1-0.3-1.4-0.7-1.3-1c0.1-3.2-0.8-6.6-2.3-8.2c-2.7-2.9-8.1-3.4-7-7.8c0.4-2,0.7-3.9,0.5-5.9
		c-0.3-2.6-1.1-5-2.4-7.4c-1.3-2.2-3.2-4.2-5.3-5.6c-4.5-3-9.5-0.2-14.4-0.3c-5.8-0.1-10-5-16.1-5c-3.1,0-5.5,1.1-8.1,2.6
		c-2.2,1.2-4.3,2.5-6.4,3.9s-3.9,2.6-6.5,2.6c-3.3,0-6.4-2-9.7-1.1c-1.6,0.4-3.1,1.4-4.1,2.9C483.8,113.5,485.6,119.7,488.9,122.8z"
		/>
	<path class="st0" d="M531.5,151.8c0.4-1.8,1-3.5,1.9-5.2c1.2-2.3,3.2-3.8,6-2.1c5.8,3.4,8,13.5,2.5,18.1l3.5,6.7
		c1.2,2.3,3.3,4.2,5.7,5.2s5.2,1.1,7.7,0.3"/>
	<path class="st0" d="M555.2,166.7l3.6,8c0.9,2,3.5,7.9,6.3,14c2,4.4,3.9,9,5.5,12.3"/>
	<path class="st0" d="M496.4,137.8c0,0,10.6-2.6,15.4,5.5"/>
	<path class="st0" d="M499.6,162c-2.9,0.8-6.8,1.5-9-1l4.8-10.2c1.2-2.5,1.4-5.4,0.9-8c-1.1-4.5-3.7-11.4-0.9-17.3"/>
	<path d="M506.8,148.3c0.8-1.3,0.2-3.2-1.4-4.2c-1.5-1-3.5-0.7-4.4,0.7c-0.8,1.3-0.2,3.2,1.4,4.2C504.1,150,505.9,149.7,506.8,148.3
		z"/>
	<path class="st0" d="M522.4,212.4l-2.5-28.2"/>
	<path class="st0" d="M531.4,152.5c0-0.2,0-0.5,0-0.8s0-0.5,0-0.8"/>
	<path class="st0" d="M531.4,152.5l-2.2-1.2L525,149"/>
	<path class="st0" d="M513.7,162.7c0,0-0.2,7.1-8.3,10.1"/>
	<path class="st0" d="M555.2,166.7c8.6,1.5,14.5-9.1,12-15.7c-1.8-4.5-1.6-7.9,0.7-12.3c0.1-0.3,0.3-0.5,0.4-0.9
		c1.8-3.8,1.1-7.8-1.6-11.1c-2.6-3.1-6.6-4.2-5.5-8.8c0.5-2,0.7-4.1,0.5-6c-0.3-2.6-1.2-5.3-2.5-7.6c-1.4-2.3-3.2-4.3-5.4-5.8
		c-4.6-3.1-9.9-0.3-14.8-0.3c-6-0.1-10.3-5.2-16.6-5.3c-3.2,0-5.7,1.2-8.3,2.7c-2.3,1.3-4.5,2.6-6.6,4.1s-4.1,2.7-6.7,2.7
		c-3.3,0-6.6-2.1-9.9-1.1s-5.4,3.7-6,6.9c-1.1,5,0.8,11.3,4.2,14.4c3.5,3.2,8.8,3.3,13.2,3c5.6-0.5,11.2-1.9,16.8-3.1l3.4-0.2l0,0
		c0.7,0,1.3,0.1,1.9,0.4c0.5,0.2,1.1,0.7,1.5,1.1s0.8,1,1.1,1.6c0.2,0.5,0.3,1.2,0.3,1.9c0.1,7.2-0.7,14.5-2.2,21.5"/>
	<path class="st0" d="M532.7,174.6c0,0-12.7,16.9-24,13.2c-11.3-3.8-11.8-24.7-11.8-24.7"/>
	<path class="st0" d="M196.6,648.6V399.9h15.3v248.7"/>
	<circle class="st8" cx="97.7" cy="259.3" r="2.5"/>
	<circle class="st9" cx="416.8" cy="154.5" r="2.5"/>
	<polygon class="st10" points="116,84.1 111.9,84.7 114.5,87.9 	"/>
	<polygon class="st11" points="474.6,17.9 478,20.3 478.3,16.2 	"/>
	<circle class="st11" cx="659.9" cy="228.2" r="2.5"/>
	<circle class="st8" cx="657.4" cy="58.3" r="2.5"/>
</g>
<g>
	<g>
		<g>
			<g>
				<path class="st12" d="M195.7,183.2c-8.5-23-7.1-51.3,26.4-63c21.9-7.6,47.6,5.4,58.2,27.6c12.8,26.9,3.1,49.4-27.3,64.1
					C232.4,222,206.2,212.3,195.7,183.2z"/>
			</g>
		</g>
	</g>
</g>
<g>
	<path d="M239.4,188.8c-0.1,0.6-0.2,1.1-0.4,1.7c-0.2,1-0.4,1.9-0.6,2.9c0,0.1,0,0.2,0,0.3c0.1,0.2,0,0.4-0.2,0.5
		c-0.4,0.1-0.9,0.1-1.3,0.1c-1.4,0-2.8-0.1-4.2-0.1c-0.9,0-1.7,0-2.6,0c-0.2,0-0.5-0.1-0.7-0.2c-0.2,0-0.2-0.2-0.3-0.4
		c0-0.2-0.1-0.3-0.1-0.5c-0.3-1.4-0.7-2.7-1-4.1c0-0.1,0-0.2-0.1-0.3c-0.1,0.1-0.2,0.1-0.2,0.1c-1.2,0.8-2.5,1.6-3.7,2.4
		c-0.1,0-0.1,0.1-0.2,0.2c-0.1,0.2-0.3,0.3-0.5,0.2c-0.3-0.2-0.7-0.5-1-0.8c-1.2-1.3-2.4-2.5-3.6-3.8c-0.3-0.3-0.7-0.6-1-1
		c-0.2-0.2-0.3-0.5-0.5-0.7c-0.1-0.2-0.1-0.3,0.1-0.5c0,0,0.1-0.1,0.1-0.1c0.8-1.4,1.6-2.7,2.4-4.1c0,0,0-0.1,0-0.1
		c-0.5-0.1-1-0.2-1.5-0.3c-1-0.2-2-0.5-3-0.7c-0.1,0-0.2,0-0.3,0c-0.2,0.1-0.4,0-0.5-0.2c-0.1-0.4-0.1-0.8-0.1-1.2
		c0-2.2,0.1-4.3,0.1-6.5c0-0.4,0.1-0.7,0.2-1c0-0.2,0.2-0.3,0.4-0.3c0.2,0,0.3-0.1,0.5-0.1c1.4-0.4,2.8-0.7,4.2-1.1c0,0,0.1,0,0.2,0
		c0-0.1-0.1-0.1-0.1-0.2c-0.8-1.3-1.6-2.5-2.4-3.8c0-0.1-0.1-0.1-0.2-0.1c-0.2-0.1-0.3-0.3-0.2-0.5c0.2-0.4,0.5-0.7,0.8-1
		c1.3-1.3,2.6-2.5,3.9-3.7c0.3-0.3,0.5-0.6,0.8-0.9c0.2-0.2,0.5-0.4,0.7-0.5c0.2-0.1,0.3-0.1,0.5,0.1c0.1,0.1,0.1,0.1,0.2,0.1
		c0.3,0.2,0.6,0.3,0.9,0.5c1.1,0.6,2.1,1.3,3.2,2c0-0.1,0.1-0.2,0.1-0.3c0.3-1.4,0.6-2.8,0.9-4.2c0-0.1,0-0.2,0-0.3
		c-0.1-0.2,0-0.4,0.2-0.5c0.4-0.1,0.9-0.1,1.3-0.1c1.4,0,2.8,0.1,4.2,0.1c0.8,0,1.7,0,2.5,0c0.1,0,0.3,0,0.4,0.1
		c0.3,0.1,0.5,0.2,0.5,0.6c0.3,1.1,0.6,2.3,0.9,3.4c0.1,0.4,0.2,0.9,0.3,1.3c0.2-0.1,0.4-0.3,0.6-0.4c1.1-0.7,2.2-1.4,3.3-2.1
		c0.1,0,0.1-0.1,0.2-0.2c0.1-0.3,0.3-0.4,0.5-0.2c0.3,0.2,0.7,0.5,1,0.8c1.5,1.5,3,3.1,4.5,4.6c0.2,0.2,0.4,0.5,0.6,0.8
		c0.1,0.2,0.1,0.4-0.1,0.5c0,0,0,0.1-0.1,0.1c-0.8,1.4-1.6,2.7-2.4,4.1c0,0,0,0,0,0.1c0.1,0,0.2,0,0.3,0.1c1.4,0.3,2.9,0.6,4.3,1
		c0.1,0,0.2,0,0.2,0c0.2-0.1,0.4,0,0.5,0.2c0.1,0.4,0.1,0.8,0.1,1.1c0,1.8-0.1,3.7-0.1,5.5c0,0.5,0,1.1,0,1.6c0,0.1-0.1,0.3-0.1,0.4
		c-0.1,0.2-0.2,0.4-0.5,0.4c-0.1,0-0.3,0.1-0.4,0.1c-0.8,0.2-1.5,0.4-2.3,0.6c-0.6,0.2-1.2,0.3-1.9,0.5c-0.1,0-0.1,0-0.2,0.1
		c0.2,0.3,0.4,0.6,0.6,1c0.6,1,1.3,2,1.9,3c0,0.1,0.1,0.1,0.2,0.1c0.3,0.1,0.4,0.3,0.2,0.5c-0.2,0.3-0.4,0.6-0.6,0.8
		c-1.4,1.3-2.7,2.6-4.1,3.9c-0.3,0.3-0.6,0.6-0.8,0.9c-0.1,0.1-0.3,0.2-0.4,0.3c-0.3,0.2-0.5,0.3-0.9,0c-0.9-0.6-1.9-1.1-2.8-1.7
		c-0.4-0.2-0.8-0.5-1.1-0.7C239.6,188.9,239.5,188.8,239.4,188.8z M221.1,170.1c-0.3,0.1-0.5,0.2-0.8,0.2c-1.5,0.3-2.9,0.6-4.4,0.9
		c-0.1,0-0.2,0.1-0.2,0.2c0,0.4,0,0.8,0,1.1c-0.1,2-0.1,4-0.2,5.9c0,0.1,0,0.2,0.1,0.2c1.8,0.6,3.6,1.1,5.5,1.7
		c0.1,0,0.2,0.1,0.3,0.1c-1,1.5-2,3.1-3,4.6c1.7,1.8,3.4,3.6,5,5.4c1.8-1,3.6-1.9,5.4-2.9c0.1,0.2,0.1,0.3,0.1,0.5
		c0.3,1.5,0.7,3.1,1,4.6c0,0.2,0.1,0.2,0.3,0.3c2.4,0.1,4.7,0.2,7.1,0.3c0.1,0,0.2-0.1,0.2-0.1c0.6-1.8,1.1-3.6,1.7-5.5
		c0-0.1,0.1-0.2,0.1-0.3c1.5,1,3.1,2,4.6,3c1.8-1.7,3.7-3.4,5.4-5c-1-1.8-1.9-3.6-2.9-5.4c0.1,0,0.2-0.1,0.2-0.1
		c1.6-0.3,3.3-0.7,4.9-1c0.2,0,0.2-0.1,0.2-0.3c0-0.7,0.1-1.5,0.1-2.2c0.1-1.6,0.1-3.2,0.2-4.8c0-0.1,0-0.2-0.2-0.2
		c-1.8-0.6-3.7-1.1-5.5-1.7c-0.1,0-0.1,0-0.2-0.1c1-1.5,2-3,3-4.6c-1.7-1.8-3.4-3.6-5-5.4c-1.8,1-3.6,1.9-5.4,2.9
		c-0.1-0.3-0.1-0.5-0.2-0.7c-0.3-1.5-0.6-3-0.9-4.5c0-0.1,0-0.2-0.2-0.2c-2.3-0.1-4.6-0.2-6.9-0.2c-0.4,0-0.4,0-0.5,0.4
		c-0.5,1.8-1.1,3.5-1.6,5.3c0,0.1,0,0.1-0.1,0.2c-0.2-0.1-0.3-0.1-0.4-0.2c-1.3-0.9-2.7-1.7-4-2.6c-0.1-0.1-0.2-0.1-0.3,0
		c-1.5,1.4-3,2.7-4.5,4.1c-0.3,0.3-0.5,0.6-0.8,0.9C219.2,166.5,220.1,168.2,221.1,170.1z"/>
	<path d="M257.1,169.6c-0.1,0.6-0.3,1.2-0.4,1.8c-0.1,0.6-0.3,1.2-0.4,1.8c0,0.1,0,0.1,0,0.2c0.1,0.2,0,0.4-0.2,0.4
		c-0.3,0.1-0.7,0.1-1,0.1c-0.4,0-0.8,0-1.2,0c-0.2,0-0.2-0.1-0.2-0.2c-0.1-0.6-0.1-0.6,0.5-0.6c0.4,0,0.8,0,1.1,0
		c0.2,0,0.2,0,0.2-0.2c0.4-1.5,0.9-2.9,1.3-4.4c0,0,0-0.1,0-0.1c1.3,0.7,2.4,1.6,3.7,2.3c1.4-1.3,2.9-2.7,4.3-4
		c-0.8-1.5-1.5-2.9-2.3-4.4c0.3-0.1,0.6-0.2,0.9-0.2c1.1-0.2,2.1-0.4,3.2-0.6c0.2,0,0.2-0.1,0.2-0.2c0.1-1.5,0.1-3,0.2-4.6
		c0-0.3,0-0.7,0-1c0-0.1,0-0.2-0.2-0.2c-1.5-0.4-2.9-0.9-4.4-1.4c0,0-0.1,0-0.1,0c0.2-0.3,0.3-0.6,0.5-0.8c0.6-0.9,1.2-1.8,1.8-2.7
		c0.1-0.1,0.1-0.2,0-0.3c-1.3-1.4-2.6-2.8-3.9-4.2c0,0-0.1-0.1-0.1-0.1c-1.4,0.8-2.9,1.5-4.4,2.3c-0.1-0.6-0.3-1.1-0.4-1.7
		c-0.2-0.8-0.3-1.6-0.5-2.4c0-0.1-0.1-0.2-0.2-0.2c-1.7-0.1-3.5-0.1-5.2-0.2c-0.2,0-0.4,0-0.5,0c-0.5,1.5-1,3.1-1.4,4.7
		c-1.3-0.7-2.4-1.7-3.7-2.3c-1.4,1.3-2.9,2.7-4.3,4c0.8,1.5,1.5,2.9,2.3,4.4c-0.1,0-0.2,0.1-0.3,0.1c-0.8,0.2-1.6,0.3-2.4,0.5
		c-0.3,0.1-0.6,0.1-1,0.2c-0.2,0.1-0.4,0.1-0.6,0c-0.2-0.1-0.5-0.2-0.8-0.2c0,0,0,0,0-0.1c0.1-0.1,0.2-0.1,0.3-0.2
		c1.3-0.3,2.5-0.6,3.8-1c0,0,0.1,0,0.1,0c0-0.1-0.1-0.1-0.1-0.2c-0.6-1-1.3-2-1.9-3c0-0.1-0.1-0.1-0.2-0.1c-0.2-0.1-0.3-0.2-0.1-0.4
		c0.2-0.2,0.3-0.5,0.5-0.7c1.2-1.2,2.5-2.4,3.7-3.6c0.2-0.2,0.4-0.3,0.5-0.4c0.2-0.2,0.4-0.2,0.7,0c0.7,0.5,1.5,0.9,2.3,1.3
		c0.4,0.2,0.7,0.4,1.1,0.7c0.1-0.4,0.2-0.7,0.2-1.1c0.2-0.8,0.4-1.7,0.6-2.5c0-0.1,0-0.2,0-0.3c-0.1-0.2,0-0.3,0.2-0.4
		c0.3-0.1,0.6-0.1,0.9-0.1c1.8,0,3.6,0,5.4,0.1c0.2,0,0.3,0,0.5,0.1c0.3,0,0.4,0.2,0.5,0.5c0.3,1.2,0.6,2.5,0.9,3.7c0,0,0,0,0,0.1
		c0.3-0.2,0.6-0.4,0.9-0.6c0.7-0.5,1.5-0.9,2.2-1.4c0.1,0,0.1-0.1,0.1-0.2c0.1-0.2,0.2-0.3,0.4-0.2c0.3,0.2,0.6,0.4,0.8,0.6
		c1.2,1.2,2.3,2.4,3.4,3.5c0.2,0.2,0.4,0.4,0.5,0.6c0.2,0.2,0.2,0.4,0,0.7c-0.5,0.8-0.9,1.6-1.4,2.4c-0.2,0.3-0.4,0.6-0.6,1
		c0.3,0.1,0.6,0.1,0.8,0.2c0.9,0.2,1.9,0.4,2.8,0.6c0.1,0,0.2,0,0.2,0c0.2-0.1,0.4,0,0.4,0.2c0.1,0.3,0.1,0.7,0.1,1
		c0,1.7,0,3.4-0.1,5.1c0,0.2,0,0.4-0.1,0.6c0,0.3-0.2,0.5-0.5,0.5c-0.9,0.2-1.9,0.5-2.8,0.7c-0.3,0.1-0.6,0.2-1,0.2
		c0,0.1,0.1,0.2,0.1,0.2c0.6,1,1.2,1.9,1.8,2.9c0,0.1,0.1,0.1,0.2,0.2c0.2,0.1,0.3,0.2,0.1,0.4c-0.2,0.3-0.4,0.6-0.7,0.8
		c-1.2,1.2-2.4,2.3-3.6,3.5c-0.2,0.2-0.4,0.3-0.5,0.4c-0.2,0.1-0.4,0.2-0.6,0c-0.7-0.4-1.4-0.8-2.1-1.3
		C258,170.1,257.6,169.9,257.1,169.6z"/>
	<path d="M225.3,155.7c-0.8,0.4-1.7,0.9-2.5,1.3c-0.1,0.1-0.2,0.2-0.3,0.3c-0.1,0-0.2,0.1-0.3,0c-0.2-0.1-0.3-0.3-0.5-0.4
		c-0.9-1.1-1.8-2.2-2.7-3.3c0-0.1-0.1-0.1-0.1-0.2c-0.3-0.4-0.3-0.5,0-0.9c0.5-0.8,1.1-1.5,1.6-2.2c0-0.1,0.1-0.1,0.1-0.2
		c0,0-0.1,0-0.1,0c-0.9-0.3-1.8-0.6-2.7-0.8c-0.1,0-0.1,0-0.2,0c-0.2,0-0.3,0-0.3-0.2c0-0.2,0-0.4,0-0.6c0.1-1.4,0.3-2.9,0.4-4.3
		c0-0.1,0-0.2,0.1-0.3c0.1-0.2,0.1-0.4,0.5-0.4c1-0.1,1.9-0.3,2.9-0.5c0,0,0.1,0,0.1,0c0,0,0-0.1,0-0.1c-0.5-0.8-0.9-1.7-1.4-2.5
		c0,0-0.1-0.1-0.1-0.1c-0.2-0.2-0.3-0.2-0.1-0.4c0.1-0.2,0.3-0.3,0.5-0.5c1-0.9,2.1-1.7,3.1-2.6c0.2-0.1,0.4-0.3,0.6-0.4
		c0.1,0,0.3,0,0.3,0c0.9,0.6,1.7,1.2,2.5,1.8c0,0,0,0,0.1,0c0,0,0-0.1,0-0.1c0.3-0.9,0.6-1.8,0.8-2.7c0,0,0-0.1,0-0.2
		c-0.1-0.3,0-0.3,0.2-0.3c0.2,0,0.4,0,0.6,0c1.4,0.1,2.9,0.3,4.3,0.4c0.1,0,0.2,0,0.3,0c0.2,0.1,0.4,0.1,0.5,0.4
		c0.1,1,0.3,1.9,0.5,2.8c0,0.1,0,0.1,0,0.2c0,0,0.1,0,0.1,0c0.8-0.4,1.7-0.9,2.5-1.3c0.1,0,0.1-0.1,0.1-0.2c0.1-0.2,0.2-0.2,0.3-0.1
		c0.2,0.2,0.4,0.3,0.6,0.5c0.9,1,1.7,2.1,2.6,3.1c0.1,0.2,0.3,0.4,0.4,0.6c0.1,0.1,0,0.3,0,0.4c-0.6,0.8-1.2,1.7-1.8,2.6
		c0.1,0,0.1,0.1,0.2,0.1c0.9,0.3,1.7,0.5,2.6,0.8c0.1,0,0.2,0,0.3,0c0.2,0,0.3,0,0.3,0.2c0,0.2,0,0.5,0,0.7c0,0.3-0.1,0.7-0.1,1
		c0,0.1-0.3,0.3-0.4,0.3c-0.2,0-0.2-0.1-0.2-0.3c0-0.4,0.1-0.7,0.1-1.1c0-0.2,0-0.2-0.2-0.3c-1.1-0.4-2.2-0.9-3.3-1.3
		c0,0-0.1,0-0.2-0.1c0.7-0.9,1.4-1.8,2.1-2.7c-0.1-0.1-0.2-0.2-0.2-0.3c-0.9-1.1-1.7-2.2-2.6-3.3c-0.1-0.1-0.2-0.1-0.3-0.1
		c-1.1,0.5-2.2,0.9-3.3,1.4c0,0-0.1,0-0.2,0.1c-0.1-0.4-0.1-0.8-0.2-1.2c-0.1-0.7-0.2-1.4-0.2-2.1c0-0.1-0.1-0.2-0.2-0.2
		c-1.5-0.2-2.9-0.3-4.4-0.5c-0.1,0-0.2,0-0.2,0.2c-0.4,1.1-0.9,2.2-1.3,3.3c0,0,0,0.1-0.1,0.2c-0.9-0.7-1.8-1.4-2.8-2.1
		c-1.2,1-2.5,2-3.7,2.9c0.5,1.2,1,2.4,1.6,3.6c-0.4,0.1-0.8,0.1-1.2,0.2c-0.7,0.1-1.4,0.2-2.1,0.3c-0.1,0-0.2,0.1-0.2,0.2
		c-0.2,1.5-0.3,2.9-0.5,4.4c0,0.2,0,0.2,0.2,0.2c1.1,0.4,2.2,0.9,3.3,1.3c0,0,0.1,0,0.1,0.1c0,0.1-0.1,0.1-0.1,0.2
		c-0.6,0.8-1.2,1.6-1.8,2.4c-0.1,0.1-0.1,0.2,0,0.3c0.9,1.1,1.8,2.3,2.7,3.4c0.1,0.1,0.2,0.1,0.3,0.1c1.1-0.5,2.3-1,3.4-1.5
		c0.3,1.1,0.2,2.2,0.5,3.3c0.4,0.1,0.9,0.2,1.4,0.3c0.3,0.1,0.5,0.3,0.4,0.6c-0.1,0.3-0.3,0.4-0.6,0.4c-0.5-0.1-1-0.3-1.5-0.5
		c-0.2-0.1-0.3-0.2-0.3-0.5c0-0.2,0-0.3-0.1-0.5C225.6,157.4,225.5,156.6,225.3,155.7z"/>
	<path d="M245.4,158.2c-0.2-0.2-0.4-0.3-0.6-0.5c0,0,0-0.2,0-0.3c0.2-1.5,0.8-2.8,1.7-4c0.8-0.9,1.7-1.6,2.8-2.2c0,0,0.1,0,0.1-0.1
		c0.4-0.5,1-0.5,1.5-0.7c3.9-0.9,7.8,1.1,9.3,4.8c1.1,2.7,0.7,5.3-1,7.7c-1.6,2.3-3.9,3.3-6.7,3.3c-0.7,0-1.4-0.1-2.1-0.3
		c0.1-0.2,0.2-0.5,0.4-0.7c0,0,0.2,0,0.2,0c0.7,0.2,1.4,0.2,2.2,0.2c2.5-0.2,4.4-1.4,5.7-3.5c0.9-1.6,1.2-3.3,0.8-5.1
		c-0.3-1.6-1.2-2.9-2.5-4c-1.9-1.6-4.2-2-6.6-1.4c-1,0.2-1.9,0.8-2.7,1.5c-1.3,1.2-2.2,2.6-2.4,4.4
		C245.4,157.7,245.4,157.9,245.4,158.2z"/>
	<path d="M236.1,147c-0.1,1.1-0.1,2-0.6,2.9c-1,1.9-2.5,3.2-4.7,3.5c-0.6,0.1-1.3,0.1-1.9-0.1c-0.1,0-0.2-0.1-0.3,0.1
		c0,0-0.2,0-0.2,0c-1.7-0.3-3-1.3-3.9-2.7c-0.3-0.4-0.4-0.9-0.7-1.3c-0.5-0.7-0.5-1.5-0.5-2.3c0-4.4,4.4-7.5,8.5-6
		c2.1,0.8,3.5,2.2,4.1,4.4C236,146.1,236,146.6,236.1,147z M229.4,152.9c0.3,0,0.7,0,1-0.1c1.2-0.2,2.2-0.6,3-1.4
		c0.9-0.8,1.4-1.9,1.8-3c0.2-0.8,0.2-1.6,0-2.4c-0.5-2.1-1.8-3.6-3.9-4.2c-2.1-0.6-3.9-0.2-5.5,1.3c-1.9,1.7-2.3,4.6-1.4,6.4
		C225.4,151.6,227,152.9,229.4,152.9z"/>
	<path d="M219.4,190.1c0,0.2-0.2,0.3-0.3,0.1c-0.2-0.2-0.4-0.4-0.6-0.6c-0.3-0.5-0.6-1-1-1.4c-0.2-0.2-0.3-0.5-0.5-0.7
		c-0.1-0.1-0.1-0.2,0-0.3c0.1,0,0.2,0,0.3,0.1c0.6,0.7,1.2,1.5,1.7,2.2C219.3,189.7,219.3,189.9,219.4,190.1z"/>
	<path d="M218.9,159.2c0,0.1-0.1,0.1-0.1,0.2c-0.5,0.6-0.9,1.1-1.4,1.7c-0.1,0.1-0.3,0.2-0.4,0.3c-0.1,0-0.2,0-0.2,0
		c0,0-0.1-0.2,0-0.2c0.1-0.2,0.2-0.3,0.3-0.5c0.5-0.5,1-1.1,1.5-1.6c0.1-0.1,0.2-0.1,0.2-0.1C218.8,159.1,218.8,159.1,218.9,159.2z"
		/>
	<path d="M270.8,156.1c0,0.5,0,1.1-0.1,1.6c0,0.2-0.1,0.4-0.1,0.6c0,0.1-0.1,0.1-0.2,0.2c-0.1-0.1-0.1-0.1-0.2-0.2
		c0-0.2,0-0.4,0-0.6c0.1-0.7,0.2-1.4,0.2-2c0-0.1,0.1-0.3,0.2-0.2c0.1,0,0.1,0.1,0.1,0.3C270.8,155.8,270.8,155.9,270.8,156.1
		C270.8,156.1,270.8,156.1,270.8,156.1z"/>
	<path d="M219.7,159.9c0,0.1-0.1,0.1-0.1,0.2c-0.7,0.7-1.3,1.5-2,2.2c-0.2,0.2-0.4,0.3-0.6,0.5c-0.1,0-0.2,0-0.2,0
		c0-0.1,0-0.2,0-0.2c0.2-0.3,0.4-0.5,0.7-0.8c0.6-0.6,1.3-1.2,2-1.8C219.5,159.9,219.6,159.9,219.7,159.9
		C219.7,159.8,219.7,159.9,219.7,159.9z"/>
	<path d="M218.3,190.5c0,0.3-0.1,0.3-0.3,0.2c-0.1-0.1-0.3-0.2-0.4-0.3c-0.3-0.5-0.6-1-0.9-1.5c0-0.1,0-0.2,0-0.3
		c0.1,0,0.3,0,0.3,0.1c0.4,0.5,0.7,1,1.1,1.5C218.2,190.3,218.2,190.4,218.3,190.5z"/>
	<path d="M250.7,190.9c0,0.1-0.1,0.2-0.2,0.3c-0.3,0.2-0.6,0.3-0.9,0.5c-0.1,0.1-0.3,0.1-0.4-0.1c-0.1-0.1-0.1-0.3,0-0.4
		c0.3-0.2,0.6-0.5,1-0.6C250.5,190.5,250.7,190.6,250.7,190.9z"/>
	<path d="M259.4,147.7c0.2,0,0.2,0.1,0.2,0.2c-0.1,0.2-0.2,0.3-0.3,0.5c-0.3,0.3-0.6,0.6-0.9,0.8c-0.1,0.1-0.2,0.1-0.3,0
		c-0.1-0.1-0.1-0.2,0-0.3c0.3-0.3,0.7-0.7,1-1C259.1,147.8,259.3,147.7,259.4,147.7z"/>
	<path d="M269.2,159.1c0-0.2,0-0.3,0-0.5c0-1,0-1.9,0-2.9c0-0.1,0.1-0.1,0.1-0.2c0,0.1,0.1,0.1,0.1,0.2c0,1.1-0.1,2.2-0.1,3.2
		C269.3,159,269.3,159,269.2,159.1C269.3,159.1,269.2,159.1,269.2,159.1z"/>
	<path d="M247.8,190.9C247.7,190.9,247.7,190.9,247.8,190.9c-0.1-0.1-0.1-0.2,0-0.2c0.4-0.4,0.8-0.8,1.2-1.2
		c0.2-0.2,0.4-0.4,0.7-0.6c0.1,0,0.2,0,0.2-0.1c0,0.1,0,0.2-0.1,0.3c-0.4,0.4-0.8,0.7-1.1,1.1c-0.2,0.2-0.5,0.4-0.7,0.6
		C247.9,190.8,247.8,190.9,247.8,190.9z"/>
	<path d="M224.5,154.1c0,0.1-0.1,0.1-0.1,0.2c-0.4,0.3-0.8,0.6-1.2,0.8c-0.1,0-0.2,0-0.3-0.1c0-0.1,0-0.3,0-0.3
		c0.4-0.3,0.9-0.5,1.3-0.8C224.3,153.9,224.4,153.9,224.5,154.1z"/>
	<path d="M260.5,148.7c0,0.1-0.1,0.2-0.1,0.3c-0.2,0.3-0.4,0.5-0.6,0.8c-0.1,0.1-0.2,0.2-0.3,0.1c-0.1-0.1-0.1-0.3-0.1-0.3
		c0.3-0.3,0.6-0.7,0.9-1C260.3,148.4,260.5,148.5,260.5,148.7z"/>
	<path d="M235.2,141c-0.1-0.1-0.2-0.1-0.2-0.2c0-0.1,0-0.2,0-0.3c0.2-0.2,0.4-0.4,0.6-0.6c0.1-0.1,0.3-0.1,0.4,0
		c0.1,0.1,0,0.3,0,0.3c-0.2,0.2-0.4,0.4-0.6,0.6C235.4,141,235.3,141,235.2,141z"/>
	<path d="M237.9,141.9c0,0.1-0.1,0.2-0.1,0.2c-0.2,0.3-0.4,0.6-0.6,0.9c0,0-0.2,0.1-0.2,0.1c0,0-0.1-0.2-0.1-0.2
		c0.2-0.4,0.3-0.7,0.5-1.1c0-0.1,0.2-0.1,0.3-0.1C237.8,141.8,237.9,141.9,237.9,141.9z"/>
	<path d="M217.9,158.4c0,0.1,0,0.1,0,0.1c-0.3,0.3-0.6,0.7-0.9,1c0,0-0.1,0.1-0.2,0.1c0,0-0.1,0-0.1,0c0,0,0-0.1,0-0.2
		c0.1-0.1,0.1-0.3,0.2-0.4c0.2-0.3,0.5-0.5,0.8-0.8c0,0,0.1,0,0.2,0C217.8,158.3,217.8,158.3,217.9,158.4z"/>
	<path d="M222.8,154.5c-0.1,0-0.1-0.1-0.2-0.2c0-0.1,0-0.2,0-0.2c0.2-0.2,0.4-0.3,0.6-0.4c0.1,0,0.2,0,0.3,0c0,0.1,0,0.2,0,0.3
		C223.3,154.2,223.1,154.4,222.8,154.5z"/>
	<path d="M260.6,151.1c-0.1-0.1-0.2-0.1-0.2-0.2c0-0.1,0-0.2,0-0.3c0.1-0.1,0.2-0.2,0.4-0.3c0.1,0,0.2,0,0.3,0.1c0,0.1,0,0.2,0,0.3
		C261,150.9,260.8,151,260.6,151.1z"/>
	<path d="M237,141.3c-0.1,0.2-0.2,0.4-0.3,0.7c0,0-0.2,0-0.3,0c-0.1,0-0.1-0.2,0-0.3c0.1-0.2,0.3-0.3,0.4-0.5c0,0,0.1,0,0.1,0
		C237,141.2,237,141.2,237,141.3z"/>
	<path class="st13" d="M221.1,170.1c-1-1.8-1.9-3.6-2.8-5.4c0.3-0.3,0.5-0.6,0.8-0.9c1.5-1.4,3-2.8,4.5-4.1c0.1-0.1,0.2-0.1,0.3,0
		c1.3,0.9,2.7,1.7,4,2.6c0.1,0.1,0.3,0.1,0.4,0.2c0-0.1,0.1-0.1,0.1-0.2c0.5-1.8,1.1-3.5,1.6-5.3c0.1-0.4,0.1-0.4,0.5-0.4
		c2.3,0.1,4.6,0.2,6.9,0.2c0.2,0,0.2,0.1,0.2,0.2c0.3,1.5,0.6,3,0.9,4.5c0,0.2,0.1,0.4,0.2,0.7c1.8-1,3.6-1.9,5.4-2.9
		c1.7,1.8,3.3,3.6,5,5.4c-1,1.5-2,3-3,4.6c0.1,0.1,0.2,0.1,0.2,0.1c1.8,0.6,3.7,1.1,5.5,1.7c0.2,0,0.2,0.1,0.2,0.2
		c-0.1,1.6-0.1,3.2-0.2,4.8c0,0.7-0.1,1.5-0.1,2.2c0,0.2-0.1,0.2-0.2,0.3c-1.6,0.3-3.3,0.7-4.9,1c-0.1,0-0.1,0-0.2,0.1
		c1,1.8,1.9,3.6,2.9,5.4c-1.8,1.7-3.6,3.3-5.4,5c-1.5-1-3-2-4.6-3c-0.1,0.2-0.1,0.2-0.1,0.3c-0.6,1.8-1.1,3.6-1.7,5.5
		c0,0.1-0.1,0.1-0.2,0.1c-2.4-0.1-4.7-0.2-7.1-0.3c-0.2,0-0.2-0.1-0.3-0.3c-0.3-1.5-0.6-3.1-1-4.6c0-0.2-0.1-0.3-0.1-0.5
		c-1.8,1-3.6,1.9-5.4,2.9c-1.7-1.8-3.4-3.6-5-5.4c1-1.5,2-3,3-4.6c-0.2-0.1-0.2-0.1-0.3-0.1c-1.8-0.6-3.6-1.1-5.5-1.7
		c-0.2,0-0.1-0.1-0.1-0.2c0.1-2,0.1-4,0.2-5.9c0-0.4,0-0.8,0-1.1c0-0.2,0.1-0.2,0.2-0.2c1.5-0.3,2.9-0.6,4.4-0.9
		C220.5,170.2,220.8,170.2,221.1,170.1z M243.7,175.2c0-2.5-0.6-4.4-1.8-6.1c-2.9-4-7.6-5.2-11.9-3.6c-0.1,0-0.2,0.1-0.3,0.2
		c-0.1,0.1-0.2,0.2-0.3,0.3c-2.2,1.1-3.9,2.8-4.9,5.1c-1,2.3-1,4.7-0.2,7c0.7,2.2,2.1,4,4.1,5.3c2,1.2,4.1,1.7,6.4,1.5
		c1.8-0.2,3.5-0.8,5-1.9C242.4,180.8,243.6,178.1,243.7,175.2z M249.5,175.2C249.5,175.2,249.5,175.2,249.5,175.2
		c-0.1-0.3-0.1-0.6-0.1-0.9c0-0.2,0-0.3-0.3-0.3c-0.2,0-0.2,0.2-0.2,0.3c0,0.5,0,1.1,0,1.6c0,0.2,0,0.3,0.1,0.5
		c0,0.1,0.1,0.1,0.2,0.1c0.1,0,0.2-0.1,0.2-0.1c0-0.1,0.1-0.3,0.1-0.4C249.5,175.7,249.5,175.4,249.5,175.2z M250.9,175.1
		C250.9,175.1,250.9,175.1,250.9,175.1c0-0.3,0-0.7,0-1c0-0.1,0-0.2-0.2-0.3c-0.2,0-0.2,0.1-0.2,0.3c0,0.6-0.1,1.2-0.1,1.7
		c0,0.2,0,0.4,0,0.6c0,0.1,0.1,0.2,0.2,0.2c0.1-0.1,0.1-0.1,0.2-0.2c0-0.1,0.1-0.3,0.1-0.4C250.9,175.7,250.9,175.4,250.9,175.1z
		 M244.4,166c0,0,0,0.1,0.1,0.1c0,0,0.1,0,0.2,0c0.1,0,0.1-0.1,0.2-0.2c0.2-0.4,0.5-0.7,0.7-1.1c0-0.1,0-0.2,0-0.3
		c-0.1-0.1-0.2,0-0.3,0.1c-0.2,0.3-0.4,0.7-0.6,1C244.5,165.8,244.5,165.9,244.4,166z M245.7,166.8c0.1-0.1,0.2-0.1,0.2-0.2
		c0.2-0.3,0.5-0.6,0.7-0.9c0.1-0.1,0.1-0.2,0-0.3c-0.1-0.1-0.2-0.1-0.3,0.1c-0.2,0.3-0.3,0.5-0.5,0.8c-0.1,0.1-0.1,0.2-0.1,0.4
		C245.6,166.6,245.6,166.7,245.7,166.8z M243.6,164.3c0,0.1,0.1,0.2,0.1,0.2c0.1,0,0.2,0,0.3-0.1c0.2-0.3,0.3-0.5,0.5-0.8
		c0-0.1,0-0.2-0.1-0.3c-0.1,0-0.2,0-0.3,0.1c-0.1,0.2-0.2,0.4-0.3,0.6C243.7,164.1,243.7,164.2,243.6,164.3z"/>
	<path class="st13" d="M229.4,152.9c-2.4-0.1-4-1.3-5-3.4c-0.9-1.8-0.5-4.7,1.4-6.4c1.6-1.4,3.5-1.9,5.5-1.3
		c2.1,0.6,3.4,2.1,3.9,4.2c0.2,0.8,0.2,1.6,0,2.4c-0.3,1.2-0.8,2.2-1.8,3c-0.9,0.8-1.9,1.3-3,1.4
		C230.1,152.9,229.7,152.9,229.4,152.9z"/>
	<path d="M243.7,175.2c-0.1,2.9-1.4,5.6-4,7.7c-1.4,1.1-3.1,1.7-5,1.9c-2.3,0.2-4.5-0.2-6.4-1.5c-2-1.3-3.3-3-4.1-5.3
		c-0.8-2.4-0.8-4.7,0.2-7c1-2.3,2.6-3.9,4.9-5.1c0.1-0.1,0.2-0.2,0.3-0.3c0.1-0.1,0.2-0.2,0.3-0.2c4.3-1.6,9-0.4,11.9,3.6
		C243.1,170.8,243.7,172.7,243.7,175.2z M233.4,165.9c-4.6,0-8.9,4.3-8.7,9.2c0.2,4.6,3.8,8.9,9.3,8.7c5-0.1,8.8-4.3,8.6-9.3
		C242.5,169.7,238.2,165.8,233.4,165.9z"/>
	<path d="M249.5,175.2c0,0.3,0,0.5,0,0.8c0,0.1,0,0.3-0.1,0.4c0,0.1-0.1,0.1-0.2,0.1c-0.1,0-0.2-0.1-0.2-0.1
		c-0.1-0.2-0.1-0.3-0.1-0.5c0-0.5,0-1.1,0-1.6c0-0.2,0-0.3,0.2-0.3c0.2,0,0.3,0.2,0.3,0.3C249.5,174.6,249.5,174.9,249.5,175.2
		C249.5,175.2,249.5,175.2,249.5,175.2z"/>
	<path d="M250.9,175.1c0,0.3,0,0.6,0,0.9c0,0.1,0,0.3-0.1,0.4c0,0.1-0.1,0.1-0.2,0.2c-0.1-0.1-0.1-0.2-0.2-0.2c0-0.2,0-0.4,0-0.6
		c0-0.6,0.1-1.2,0.1-1.7c0-0.1,0-0.3,0.2-0.3c0.2,0,0.2,0.1,0.2,0.3C250.9,174.5,250.9,174.8,250.9,175.1
		C250.9,175.1,250.9,175.1,250.9,175.1z"/>
	<path d="M244.4,166c0-0.1,0.1-0.2,0.1-0.3c0.2-0.3,0.4-0.7,0.6-1c0.1-0.1,0.2-0.2,0.3-0.1c0.1,0,0.1,0.2,0,0.3
		c-0.2,0.4-0.5,0.7-0.7,1.1c0,0.1-0.1,0.1-0.2,0.2c0,0-0.1,0-0.2,0C244.5,166.1,244.4,166.1,244.4,166z"/>
	<path d="M245.7,166.8c0-0.1-0.1-0.1-0.1-0.2c0-0.1,0.1-0.2,0.1-0.4c0.1-0.3,0.3-0.5,0.5-0.8c0.1-0.1,0.2-0.2,0.3-0.1
		c0.1,0.1,0.1,0.2,0,0.3c-0.2,0.3-0.5,0.6-0.7,0.9C245.8,166.7,245.7,166.7,245.7,166.8z"/>
	<path d="M243.6,164.3c0-0.1,0.1-0.2,0.1-0.3c0.1-0.2,0.2-0.4,0.3-0.6c0-0.1,0.2-0.1,0.3-0.1c0.1,0,0.1,0.2,0.1,0.3
		c-0.1,0.3-0.3,0.5-0.5,0.8c0,0.1-0.2,0.1-0.3,0.1C243.7,164.5,243.7,164.4,243.6,164.3z"/>
</g>
<g>
	<path d="M437.3,85c-2,0.6-4,1.1-5.9,1.9c-2.7,1-5.4,2.2-8.1,3.3c-3.2,1.4-6.5,2.9-9.7,4.3c-3.5,1.6-7.1,3.2-10.6,4.8
		c-1.3,0.6-2.5,1.5-3.8,2c-2.5,1-5.1,1.9-7.7,2.7c-0.8,0.3-1.5-0.1-2.1-0.8c-0.2-0.2-0.4-0.5-0.7-0.6c-0.5-0.2-0.7-0.5-0.9-1
		c-0.7-3.1-2.4-5.7-3.7-8.5c-1.3-3-2.6-6-3.8-9.1c-1.5-3.8-3.1-7.7-4.4-11.6c-1-3-1.6-6.2-2.4-9.3c-0.2-0.9-0.4-1.7-0.7-2.6
		c0-0.2,0-0.4,0-0.5c1.5-3,2.9-6.1,4.4-9c0.5-1,1.1-2,1.8-3c0.8-1.1,1-2.1,0.4-3.5c-0.6-1.6-0.5-3.1-0.1-4.6
		c0.3-0.8,0.8-1.4,1.6-1.7c2.9-0.7,4.8-2.8,6.2-5.5c1.9-3.5,4.3-6.5,7.6-8.6c1.7-1.1,3.6-1.6,5.7-1.1c1.1,0.2,2.2,0.4,3.2,0.6
		c1.4,0.3,2.7,0.9,3.9,1.9c0.2,0.2,0.6,0.3,0.9,0.2c0.7-0.1,1.5-0.4,2.2-0.6c1.3-0.4,2.5-0.9,3.8-1.1c2.2-0.3,4,0.8,5.4,2.6
		c0.8,1,1.6,1.9,2.7,2.5c0.6,0.3,1.2,0.5,1.8,0.7c4.8,1.4,9.4,3.5,13.7,6.3c2.3,1.5,3.9,3.6,4.8,6.2c2.6,7.1,5.2,14.2,7.7,21.3
		c0.9,2.6,1.9,5.2,2.7,7.9c0.5,1.9,0.8,3.9,1,5.8c0.1,0.4-0.2,0.9-0.5,1.1c-0.9,0.7-1.8,1.4-2.8,1.8C446.4,82,441.9,83.5,437.3,85
		C437.3,85,437.3,85,437.3,85z M423.7,43.1c0,0,0.1,0,0.1,0c-1.5-4-3.1-7.9-4.6-11.9c-0.5-1.2-1.2-2.4-1.8-3.5
		c-0.6-1.1-1.6-1.6-2.7-1.4c-0.8,0.2-1.5,0.4-2.3,0.7c-3.5,1.5-7,3.1-10.6,4.7c-6,2.7-12.1,5.4-18.1,8.1c-1.1,0.5-1.5,1.2-1.4,2.5
		c0.1,1.5,0.5,2.9,1.2,4.3c1,2,2.1,4.1,3.1,6.1c1.6,3.1,3.3,6.3,5,9.4c1.2,2.1,2.8,3.6,5.2,3.8c0.2,0,0.3,0.1,0.5,0.2
		c5,1.8,10.1,3,15.2,3.4c1.6,0.1,3.2,0,4.5-0.9c1.5-1.1,2.8-2.4,3.9-4c2.1-3.1,4.3-6.2,6.4-9.3c0.3-0.4,0.3-0.7,0.1-1.1
		C426.1,50.4,424.9,46.7,423.7,43.1z M448.4,77.6c-1.4-0.6-2.8-1.2-4.3-1.7c-6.2-2.5-12.6-4.2-19.1-5.7c-0.7-0.2-1.6,0-2.3,0.1
		c-0.8,0.2-1.6,0.4-2.4-0.2c-0.5-0.4-0.8-0.3-1.2,0c-1.5,0.8-2.9,1.7-4.7,1.7c-0.4,0-0.8,0.2-1.1,0.5c-0.6,0.5-1.1,1.1-1.5,1.7
		c-5.5,7.3-10.9,14.6-15.4,22.7c-0.6,1.1-1.1,2.2-1.7,3.2c0.4,0.4,0.4,0.4,0.7,0.3c0.4-0.2,0.9-0.4,1.3-0.6c0.9-0.5,1.8-1.2,2.8-1.7
		c5.4-2.5,10.7-5.1,16.1-7.5c6-2.7,12.1-5.1,18.3-7.3c1.7-0.6,3.3-1.2,5-1.7c3.1-0.8,6.2-1.6,9.1-3C448.4,78.3,448.5,78,448.4,77.6z
		 M376.7,63.8c0.4,2.7,1.1,5.3,2,7.7c2.9,8.5,6.5,16.6,10,24.8c0.6,1.4,1.3,2.7,2.3,3.9c0.1,0.1,0.3,0.2,0.4,0.4
		c5-10.7,11.8-19.9,18.7-29.1c-0.5-0.1-0.9-0.3-1.4-0.4c-4.1-0.6-8.2-1.7-12.1-3.1c-1.3-0.5-2.5-0.7-3.7,0c-0.6,0.3-1.2,0.1-1.6-0.5
		c-0.5-0.8-1.2-1.1-2-1.3c-3.9-0.8-7.7-1.6-11.6-2.4C377.4,63.8,377.1,63.8,376.7,63.8z M422.5,67.5c9.6,1.8,19,4.6,28.1,8.6
		c0-0.3,0.1-0.5,0.1-0.7c0.2-1.9-0.2-3.7-0.8-5.5c-1.7-4.9-3.4-9.7-5.1-14.6c-1.4-3.8-2.7-7.6-4.1-11.3c-0.3-0.9-0.7-1.8-1.1-2.7
		c-0.2,0.2-0.3,0.3-0.4,0.5c-1,1.4-2,2.8-2.9,4.3c-1.4,2.2-2.6,4.6-4,6.8c-3.1,4.8-6.2,9.5-9.3,14.3
		C422.7,67.1,422.6,67.3,422.5,67.5z M436.5,38.8c-1.1-0.2-2.1-0.3-3.1,0c-1.5,0.4-3,0.7-4.5,1.1c-0.9,0.2-1.8,0.4-2.7,0.7
		c0.8,3.6,1.9,7,3.5,10.4c0.3-0.3,0.5-0.5,0.6-0.7c1.7-2.8,3.4-5.6,5.1-8.4C436,40.9,436.3,39.9,436.5,38.8z M390.1,33.7
		c0.1,0.1,0.1,0.1,0.2,0.2c5.4-1.7,10.5-4.1,15.4-7c-1.4-0.6-2.7-1.1-4.1-1.5c-1-0.3-2-0.3-3,0c-1.8,0.5-3.3,1.7-4.5,3.1
		c-1.1,1.3-2.1,2.6-3.1,3.9C390.6,32.7,390.4,33.2,390.1,33.7z M389.1,63.4c-0.1-0.2-0.1-0.3-0.1-0.4c-1-1.8-1.9-3.6-2.9-5.4
		c-0.3-0.6-0.6-0.6-1.1-0.5c-2.1,0.5-4.2,1.4-6.1,2.4c-0.7,0.4-1.4,0.8-2,1.2c0,0.1,0,0.1,0,0.2C380.8,62.4,384.9,63.2,389.1,63.4z
		 M422.9,31.9c0.7,1.8,1.3,3.6,1.9,5.3c0.3,0.8,0.8,1,1.6,0.8c1.5-0.4,3-0.7,4.4-1.1c0.8-0.2,1.5-0.5,2.4-0.7
		C430,33.9,426.5,32.7,422.9,31.9z M384.4,54.4c-0.9-1.7-1.8-3.3-2.8-5c-1.2,2.4-2.7,4.6-3.6,7.3C380.1,55.9,382.2,55.1,384.4,54.4z
		"/>
	<path class="st14" d="M423.7,43.1c1.2,3.7,2.4,7.3,3.7,10.9c0.1,0.4,0.1,0.7-0.1,1.1c-2.1,3.1-4.3,6.2-6.4,9.3
		c-1.1,1.6-2.4,2.9-3.9,4c-1.3,0.9-2.9,1.1-4.5,0.9c-5.2-0.4-10.2-1.7-15.2-3.4c-0.2-0.1-0.3-0.1-0.5-0.2c-2.4-0.2-4-1.7-5.2-3.8
		c-1.7-3.1-3.3-6.3-5-9.4c-1.1-2-2.1-4-3.1-6.1c-0.7-1.3-1.1-2.8-1.2-4.3c-0.1-1.3,0.3-2.1,1.4-2.5c6-2.7,12.1-5.4,18.1-8.1
		c3.5-1.6,7-3.2,10.6-4.7c0.7-0.3,1.5-0.5,2.3-0.7c1.1-0.2,2.1,0.3,2.7,1.4c0.7,1.1,1.3,2.3,1.8,3.5c1.6,3.9,3.1,7.9,4.6,11.9
		C423.7,43,423.7,43.1,423.7,43.1z"/>
	<path class="st14" d="M448.4,77.6c0.1,0.4,0,0.6-0.4,0.8c-2.9,1.3-6,2.1-9.1,3c-1.7,0.5-3.3,1.1-5,1.7c-6.2,2.2-12.3,4.6-18.3,7.3
		c-5.4,2.5-10.7,5-16.1,7.5c-1,0.5-1.9,1.1-2.8,1.7c-0.4,0.2-0.9,0.4-1.3,0.6c-0.3,0.2-0.3,0.1-0.7-0.3c0.6-1.1,1.1-2.2,1.7-3.2
		c4.5-8.1,9.9-15.4,15.4-22.7c0.5-0.6,1-1.2,1.5-1.7c0.3-0.3,0.7-0.5,1.1-0.5c1.7-0.1,3.2-0.9,4.7-1.7c0.4-0.2,0.7-0.3,1.2,0
		c0.7,0.6,1.6,0.4,2.4,0.2c0.7-0.1,1.6-0.3,2.3-0.1c6.4,1.5,12.8,3.2,19.1,5.7C445.6,76.5,447,77,448.4,77.6z"/>
	<path class="st13" d="M376.7,63.8c0.4,0,0.7-0.1,1,0c3.9,0.8,7.7,1.6,11.6,2.4c0.8,0.2,1.5,0.5,2,1.3c0.4,0.6,1,0.9,1.6,0.5
		c1.2-0.7,2.4-0.4,3.7,0c4,1.4,8,2.5,12.1,3.1c0.4,0.1,0.9,0.2,1.4,0.4c-6.9,9.2-13.7,18.4-18.7,29.1c-0.2-0.2-0.3-0.3-0.4-0.4
		c-1-1.1-1.7-2.5-2.3-3.9c-3.5-8.2-7.1-16.4-10-24.8C377.8,69.1,377.1,66.6,376.7,63.8z"/>
	<path class="st13" d="M422.5,67.5c0.1-0.2,0.2-0.4,0.3-0.5c3.1-4.8,6.3-9.5,9.3-14.3c1.4-2.2,2.6-4.5,4-6.8c0.9-1.5,2-2.8,2.9-4.3
		c0.1-0.2,0.3-0.3,0.4-0.5c0.4,1,0.8,1.8,1.1,2.7c1.4,3.8,2.8,7.6,4.1,11.3c1.7,4.9,3.4,9.7,5.1,14.6c0.6,1.8,1,3.6,0.8,5.5
		c0,0.2-0.1,0.4-0.1,0.7C441.5,72.1,432.1,69.3,422.5,67.5z"/>
	<path class="st13" d="M436.5,38.8c-0.2,1.1-0.5,2.1-1,3c-1.7,2.8-3.4,5.6-5.1,8.4c-0.1,0.2-0.3,0.4-0.6,0.7
		c-1.6-3.4-2.7-6.8-3.5-10.4c0.9-0.2,1.8-0.5,2.7-0.7c1.5-0.4,3-0.7,4.5-1.1C434.4,38.5,435.4,38.6,436.5,38.8z"/>
	<path class="st13" d="M390.1,33.7c0.2-0.5,0.4-1,0.7-1.4c1-1.3,2.1-2.7,3.1-3.9c1.2-1.4,2.7-2.6,4.5-3.1c1-0.3,2-0.3,3,0
		c1.4,0.4,2.7,0.9,4.1,1.5c-4.9,2.9-10,5.3-15.4,7C390.2,33.8,390.2,33.8,390.1,33.7z"/>
	<path class="st13" d="M389.1,63.4c-4.2-0.2-8.2-1-12.2-2.4c0-0.1,0-0.1,0-0.2c0.7-0.4,1.3-0.8,2-1.2c2-1,4-1.8,6.1-2.4
		c0.5-0.1,0.8-0.1,1.1,0.5c0.9,1.8,1.9,3.6,2.9,5.4C389,63.1,389,63.2,389.1,63.4z"/>
	<path class="st13" d="M422.9,31.9c3.7,0.8,7.1,2,10.4,4.3c-0.9,0.3-1.7,0.5-2.4,0.7c-1.5,0.4-3,0.8-4.4,1.1
		c-0.8,0.2-1.3-0.1-1.6-0.8C424.2,35.4,423.5,33.7,422.9,31.9z"/>
	<path class="st13" d="M384.4,54.4c-2.1,0.8-4.2,1.5-6.4,2.3c0.9-2.7,2.4-4.8,3.6-7.3C382.5,51.1,383.4,52.7,384.4,54.4z"/>
</g>
<g>
	<path class="st15" d="M419.8,49c-0.1,0-0.1,0-0.2-0.1c-0.6-1.5-1.2-3.1-1.6-4.6c-0.5-1.7-1-3.5-1.9-5c-0.4-0.6-0.9-0.6-1.3,0
		c-0.1,0.2-0.2,0.3-0.3,0.5c-0.6,0.9-1.6,1-2.2,0c-0.3-0.5-0.5-1.1-0.5-1.6c-0.1-1,0.7-1.6,1.7-1.2c0.2,0.1,0.3,0.2,0.4,0.3
		c0.7,0.4,1.4,0.1,1.2-0.8c-0.2-1-0.6-2.1-1-3c-0.2-0.5-0.7-0.7-1.3-0.5c-1.1,0.4-2.2,0.7-3.3,1c-0.6,0.2-0.9-0.1-0.7-0.8
		c0-0.2,0.2-0.3,0.2-0.5c0.4-1.1-0.3-2.2-1.5-2.2c-1,0-1.9,0.4-2.7,1.2c-0.6,0.6-0.6,1.4,0,2c0.2,0.2,0.5,0.2,0.8,0.4
		c0.3,0.2,0.5,0.6,0.8,0.8c-0.2,0.2-0.4,0.4-0.7,0.5c-1.8,0.6-3.7,1.3-5.5,1.9c-1.2,0.4-2.4,0.7-3.6,1.2c-0.4,0.1-0.9,0.6-0.9,0.8
		c0.1,0.5,0.5,0.9,0.8,1.3c0.1,0.1,0.3,0.1,0.5,0.2c0.8,0.3,0.9,0.9,0.3,1.5c-0.6,0.6-1.3,0.9-2.1,0.9c-0.9,0-1.3-0.6-1-1.5
		c0-0.1,0.2-0.2,0.2-0.3c0-0.5,0-1-0.2-1.4c-0.1-0.2-0.8-0.2-1.1-0.1c-0.8,0.2-1.6,0.5-2.5,0.9c-0.8,0.3-0.9,0.6-0.7,1.4
		c0.3,1.1,0.8,2.1,1.1,3.2c0.1,0.2,0.2,0.5,0.3,0.9c-0.4-0.2-0.6-0.3-0.8-0.4c-1.3-0.7-2.6,0.1-2.5,1.6c0,0.6,0.3,1.2,0.5,1.8
		c0.3,0.6,0.7,1.1,1.4,1.1c0.8,0,1.4-0.4,1.8-1.1c0.1-0.2,0.2-0.4,0.3-0.6c0.1,0,0.1,0,0.2,0c0.6,1.5,1.1,3,1.7,4.6
		c0.5,1.5,1,2.9,1.5,4.4c0.2,0.4,0.6,0.7,0.9,1c0.3-0.3,0.6-0.7,0.9-0.9c0.4-0.3,0.9-0.8,1.4-0.7c0.8,0,1,0.8,1.2,1.5
		c0.2,0.6,0.3,1.2-0.3,1.6c-0.3,0.2-0.9,0.1-1.3,0.1c-0.1,0-0.3-0.2-0.4-0.2c-0.8-0.4-1.3-0.1-1.2,0.8c0.1,1.4,0.6,2.8,1.3,4
		c0.3,0.5,0.7,0.7,1.3,0.4c1.1-0.5,2.2-0.9,3.4-1.4c0.2-0.1,0.6-0.1,0.6,0c0.1,0.2,0.1,0.5,0.1,0.7c0,0.2-0.1,0.3-0.2,0.5
		c-0.4,1,0.2,2.1,1.2,2.1c1.2,0.1,2.3-0.4,3-1.3c0.6-0.8,0.2-1.8-0.7-2.2c-0.3-0.1-0.5-0.2-0.7-0.4c-0.5-0.5-0.4-0.7,0.2-1
		c0.5-0.3,1.1-0.5,1.6-0.7c1.9-0.7,3.9-1.3,5.8-2c0.6-0.2,1.2-0.5,1.8-0.8c0.6-0.3,0.7-0.7,0.3-1.2c-0.2-0.4-0.6-0.7-1-0.9
		c-0.8-0.4-0.9-1.1-0.3-1.7c0.6-0.6,1.3-0.9,2.2-0.8c0.7,0,1.1,0.7,0.8,1.3c-0.1,0.2-0.2,0.3-0.3,0.4c-0.3,0.5-0.2,1.1,0.1,1.5
		c0.2,0.2,0.8,0.2,1.1,0.2c1.1-0.3,2.2-0.7,3.2-1.1c0.5-0.2,0.6-0.6,0.5-1.1c-0.2-0.7-0.5-1.3-0.8-2c-0.3-0.7-0.7-1.5-1-2.2
		c0.1,0,0.1-0.1,0.2-0.1c0.2,0.1,0.4,0.2,0.6,0.3c0.6,0.4,1.3,0.3,1.9,0c0.6-0.3,0.8-0.9,0.7-1.5c-0.1-0.7-0.3-1.4-0.7-1.9
		c-0.8-1.2-2.3-1-2.9,0.3C420,48.6,419.9,48.8,419.8,49z"/>
	<path class="st16" d="M419.8,49c0.1-0.2,0.3-0.4,0.4-0.6c0.6-1.3,2.1-1.5,2.9-0.3c0.4,0.6,0.5,1.3,0.7,1.9c0.1,0.6-0.1,1.2-0.7,1.5
		c-0.6,0.3-1.2,0.4-1.9,0c-0.2-0.1-0.4-0.2-0.6-0.3c-0.1,0-0.1,0.1-0.2,0.1c0.3,0.7,0.7,1.5,1,2.2c0.3,0.7,0.6,1.3,0.8,2
		c0.2,0.5,0.1,0.9-0.5,1.1c-1.1,0.4-2.1,0.8-3.2,1.1c-0.3,0.1-0.9,0.1-1.1-0.2c-0.4-0.4-0.4-1-0.1-1.5c0.1-0.1,0.2-0.3,0.3-0.4
		c0.3-0.7-0.1-1.3-0.8-1.3c-0.8,0-1.6,0.3-2.2,0.8c-0.6,0.6-0.5,1.3,0.3,1.7c0.4,0.2,0.8,0.5,1,0.9c0.4,0.6,0.3,0.9-0.3,1.2
		c-0.6,0.3-1.2,0.6-1.8,0.8c-1.9,0.7-3.9,1.3-5.8,2c-0.6,0.2-1.1,0.4-1.6,0.7c-0.6,0.3-0.6,0.5-0.2,1c0.2,0.2,0.5,0.3,0.7,0.4
		c0.9,0.3,1.3,1.4,0.7,2.2c-0.8,1-1.8,1.4-3,1.3c-1-0.1-1.6-1.1-1.2-2.1c0.1-0.2,0.2-0.3,0.2-0.5c0-0.2,0-0.5-0.1-0.7
		c-0.1-0.1-0.4-0.1-0.6,0c-1.1,0.4-2.3,0.9-3.4,1.4c-0.6,0.3-1,0.1-1.3-0.4c-0.7-1.2-1.2-2.6-1.3-4c-0.1-0.9,0.4-1.2,1.2-0.8
		c0.1,0.1,0.3,0.2,0.4,0.2c0.4,0,1,0.1,1.3-0.1c0.6-0.4,0.4-1,0.3-1.6c-0.2-0.7-0.5-1.4-1.2-1.5c-0.4,0-0.9,0.4-1.4,0.7
		c-0.4,0.3-0.6,0.6-0.9,0.9c-0.3-0.3-0.8-0.6-0.9-1c-0.6-1.4-1-2.9-1.5-4.4c-0.5-1.5-1.1-3.1-1.7-4.6c-0.1,0-0.1,0-0.2,0
		c-0.1,0.2-0.2,0.4-0.3,0.6c-0.4,0.7-1,1.1-1.8,1.1c-0.7,0-1.2-0.5-1.4-1.1c-0.3-0.6-0.5-1.2-0.5-1.8c-0.1-1.5,1.2-2.3,2.5-1.6
		c0.2,0.1,0.4,0.2,0.8,0.4c-0.1-0.4-0.2-0.7-0.3-0.9c-0.4-1.1-0.8-2.1-1.1-3.2c-0.3-0.8-0.1-1.1,0.7-1.4c0.8-0.3,1.6-0.6,2.5-0.9
		c0.4-0.1,1-0.1,1.1,0.1c0.2,0.4,0.2,0.9,0.2,1.4c0,0.1-0.1,0.2-0.2,0.3c-0.3,0.8,0.1,1.5,1,1.5c0.8,0,1.5-0.3,2.1-0.9
		c0.6-0.6,0.4-1.3-0.3-1.5c-0.2-0.1-0.4-0.1-0.5-0.2c-0.3-0.4-0.7-0.9-0.8-1.3c0-0.2,0.5-0.7,0.9-0.8c1.2-0.4,2.4-0.8,3.6-1.2
		c1.8-0.6,3.7-1.2,5.5-1.9c0.2-0.1,0.4-0.3,0.7-0.5c-0.3-0.3-0.5-0.6-0.8-0.8c-0.2-0.2-0.6-0.2-0.8-0.4c-0.6-0.6-0.6-1.4,0-2
		c0.7-0.8,1.6-1.1,2.7-1.2c1.2,0,1.9,1.1,1.5,2.2c-0.1,0.2-0.2,0.3-0.2,0.5c-0.2,0.6,0.1,1,0.7,0.8c1.1-0.3,2.2-0.7,3.3-1
		c0.6-0.2,1.1-0.1,1.3,0.5c0.4,1,0.8,2,1,3c0.2,0.8-0.5,1.2-1.2,0.8c-0.1-0.1-0.3-0.2-0.4-0.3c-0.9-0.4-1.8,0.1-1.7,1.2
		c0.1,0.5,0.3,1.1,0.5,1.6c0.6,1,1.6,0.9,2.2,0c0.1-0.2,0.2-0.3,0.3-0.5c0.4-0.6,0.9-0.6,1.3,0c0.9,1.6,1.4,3.3,1.9,5
		c0.4,1.6,1.1,3.1,1.6,4.6C419.6,48.9,419.7,48.9,419.8,49z M417.4,45c-0.3,0.1-0.6,0.2-0.8,0.3c-0.8,0.3-1.7,0.7-2.5,1
		c-1.3,0.4-1.4-0.1-1.6-1.3c0-0.2,0.2-0.6,0.3-0.8c0.4-0.8,0-1.6-0.9-1.5c-0.6,0-1.1,0.2-1.6,0.4c-0.4,0.2-0.9,0.5-0.8,1.1
		c0,0.6,0.4,1,0.9,1.2c0.6,0.3,1,0.7,1,1.3c0,0.7-0.7,0.8-1.2,1c-1.1,0.4-2.2,0.7-3.2,1.1c-0.3,0.1-0.5,0.2-0.9,0.4
		c0.5,1.5,1.1,2.9,1.6,4.4c0.1,0,0.1,0,0.2,0c0.1-0.2,0.3-0.5,0.4-0.7c0.5-1.1,1.9-1.5,2.7-0.6c0.5,0.5,0.7,1.3,1,1.9
		c0.2,0.6,0.1,1.4-0.5,1.8c-0.6,0.4-1.3,0.4-2,0.1c-0.2-0.1-0.5-0.1-0.7-0.2c0,0.1-0.1,0.1-0.1,0.2c0.6,1.3,1.3,2.7,2,4.1
		c1.5-0.5,2.9-1,4.4-1.6c0.2-0.1,0.6-0.4,0.5-0.5c-0.1-0.3-0.3-0.5-0.6-0.7c-0.1-0.1-0.2-0.1-0.3-0.1c-1-0.5-1.3-1.6-0.5-2.4
		c0.6-0.7,1.4-1,2.4-1.1c0.6-0.1,1.2,0,1.5,0.5c0.4,0.6,0.5,1.2,0,1.8c-0.3,0.4-0.3,0.7,0,1.2c0.8-0.2,1.6-0.5,2.4-0.8
		c1.6-0.6,1.6-0.6,0.9-2.2c-0.4-0.9-0.8-1.8-1.2-2.7c-0.1-0.2-0.1-0.7,0.1-0.8c0.2-0.2,0.6-0.1,0.9-0.1c0.1,0,0.3,0.2,0.4,0.2
		c0.4,0,1,0.2,1.3,0c0.3-0.1,0.5-0.7,0.4-1.1c-0.1-0.5-0.3-1.1-0.5-1.5c-0.4-0.6-0.9-0.7-1.5-0.3c-0.2,0.2-0.3,0.5-0.5,0.7
		c-0.3,0.3-0.6,0.6-1,0.7c-0.1,0-0.5-0.4-0.7-0.7c-0.2-0.3-0.3-0.6-0.4-1C418.1,46.9,417.8,46,417.4,45z M414.3,37
		c0.1,0,0.1-0.1,0.2-0.1c0-1-0.3-2-0.8-2.9c-0.2-0.4-0.4-0.5-0.9-0.4c-1.1,0.4-2.2,0.7-3.3,1c-0.3,0.1-0.9,0.1-1-0.1
		c-0.2-0.4-0.2-0.9-0.2-1.4c0-0.1,0.1-0.3,0.2-0.4c0.3-0.8-0.2-1.5-1-1.4c-0.5,0-1,0.2-1.4,0.4c-0.5,0.2-1,0.5-1,1.2
		c0,0.6,0.5,0.8,1,0.9c0.1,0,0.3,0.1,0.4,0.2c0.9,0.8,0.8,1.5-0.2,2c-1,0.4-2,0.8-3,1.1c-0.4,0.2-0.9,0.3-1.3,0.5
		c0.2,0.3,0.3,0.6,0.4,0.9c0.3,1,0.7,2,0.9,3c0.2,0.8-0.4,1.2-1.2,1c-0.2-0.1-0.4-0.2-0.6-0.3c-0.9-0.4-1.7,0.1-1.5,1
		c0.1,0.7,0.4,1.3,0.8,1.9c0.5,0.7,1.5,0.4,1.8-0.4c0-0.1,0-0.3,0.1-0.4c0.3-0.3,0.6-0.6,0.9-0.7c0.2,0,0.6,0.3,0.8,0.5
		c0.2,0.2,0.3,0.5,0.4,0.8c0.4,1.1,0.8,2.2,1.3,3.5c0.7-0.3,1.5-0.6,2.4-0.9c0.7-0.3,1.3-0.5,2-0.8c0.4-0.2,0.4-0.5,0.1-0.8
		c-0.1-0.2-0.4-0.3-0.6-0.4c-1.3-0.6-1.5-2.3-0.3-3c0.7-0.4,1.5-0.7,2.3-0.7c1.1-0.1,1.8,0.9,1.5,2c-0.1,0.2-0.3,0.4-0.3,0.7
		c0,0.3,0,0.6,0.1,0.8c0.1,0.1,0.4,0.2,0.6,0.1c1-0.3,2.1-0.7,3.1-1.1c0.4-0.1,0.6-0.4,0.4-0.8c-0.5-1.2-0.9-2.4-1.3-3.6
		c-0.1-0.3-0.3-0.6-0.6-0.9c-0.2,0.3-0.3,0.4-0.3,0.6c-0.4,0.8-1.1,1.1-1.8,1.2c-0.7,0-1.2-0.5-1.5-1.1c-0.2-0.4-0.4-0.9-0.5-1.3
		c-0.1-0.7-0.2-1.5,0.6-1.9c0.7-0.4,1.4-0.4,2.2,0C414,36.8,414.2,36.9,414.3,37z M396.2,39.3c0,0.1-0.1,0.2-0.1,0.3
		c0.3,0.3,0.6,0.6,1,0.8c1.1,0.4,1.4,1.6,0.6,2.4c-0.8,0.8-1.8,1.2-2.9,1.1c-0.5,0-1-0.3-1.1-0.8c-0.1-0.5,0-1,0-1.5
		c0-0.3,0-0.7,0-1c-0.3,0-0.6-0.1-0.9,0c-0.7,0.2-1.3,0.5-2,0.7c-0.6,0.2-0.6,0.5-0.5,1c0.4,1,0.8,2,1.1,3c0.1,0.4,0.5,1,0.1,1.4
		c-0.5,0.4-0.9,0-1.3-0.2c-1-0.5-1.9,0.1-1.7,1.2c0.1,0.7,0.4,1.3,0.8,1.9c0.2,0.4,0.7,0.5,1.1,0.3c0.4-0.2,0.7-0.6,1-0.9
		c0.3-0.2,0.5-0.7,0.8-0.7c0.3,0,0.5,0.4,0.7,0.7c0.2,0.3,0.3,0.7,0.4,1c0.3,0.8,0.5,1.7,0.8,2.5c0.1,0.2,0.4,0.4,0.5,0.4
		c0.5-0.1,1-0.3,1.4-0.4c0.7-0.3,1.4-0.6,2.1-0.8c0.7-0.3,1.2,0.1,1.1,0.9c0,0.2-0.1,0.3-0.1,0.5c-0.4,1.5,0.2,2,1.7,1.7
		c0.1,0,0.3-0.1,0.4-0.1c0.6-0.2,1.2-0.5,1.3-1.2c0.1-0.7-0.5-1-1-1.3c0,0,0,0-0.1,0c-0.3-0.4-0.7-0.8-0.7-1.2c0-0.3,0.6-0.7,1-0.8
		c1-0.4,2.1-0.7,3.1-1c0.3-0.1,0.5-0.2,0.4-0.6c-0.4-1.2-0.8-2.3-1.2-3.5c-0.1-0.2-0.3-0.4-0.5-0.6c-0.1,0-0.2,0-0.4-0.1
		c0,0.3,0,0.6-0.1,0.8c-0.4,1.1-1.8,1.5-2.7,0.6c-0.7-0.6-1-1.4-1.1-2.4c0-0.6,0-1.1,0.6-1.5c0.6-0.4,1.2-0.5,1.9-0.1
		c0.2,0.1,0.6,0.2,0.9,0.3c0-1.4-0.5-2.5-0.9-3.6c-0.2-0.6-0.5-0.7-1.1-0.5c-0.8,0.3-1.6,0.4-2.3,0.7
		C397.5,38.8,396.9,39.1,396.2,39.3z M397.3,60.3c0,0.2-0.1,0.4,0,0.5c0.2,0.9,0.4,1.8,0.7,2.6c0.8,1.8,0.6,1.4,2,0.8
		c0.9-0.4,1.8-0.7,2.8-1.1c0.7-0.2,1-0.1,1.1,0.6c0.1,0.4,0,0.8-0.2,1.2c-0.2,0.7,0,1.4,0.6,1.5c1,0.1,1.9-0.3,2.6-1.1
		c0.4-0.5,0.2-1.1-0.4-1.3c-0.1-0.1-0.3-0.1-0.4-0.1c-0.6-0.3-1-0.8-1-1.4c0-0.3,0.5-0.7,0.9-0.9c0.8-0.4,1.7-0.6,2.5-0.9
		c0.4-0.2,0.9-0.3,1.3-0.5c-0.1-0.3-0.2-0.5-0.3-0.8c-0.5-1.1-1-2.1-1.5-3.2c-0.3-0.7,0.1-1.1,0.8-1c0.3,0,0.6,0.2,0.8,0.3
		c1,0.4,1.6,0,1.5-1.1c-0.1-0.5-0.2-1-0.5-1.5c-0.2-0.3-0.7-0.7-1.1-0.7c-0.5,0-0.9,0.4-1.1,0.9c-0.1,0.3-0.5,0.7-0.9,0.8
		c-0.2,0-0.6-0.4-0.8-0.7c-0.2-0.2-0.2-0.5-0.3-0.8c-0.3-1-0.5-1.9-0.8-2.9c-0.1-0.3-0.2-0.6-0.6-0.4c-0.8,0.3-1.6,0.5-2.3,0.8
		c-0.5,0.2-1,0.4-1.7,0.7c0.5,0.4,0.8,0.6,1.1,0.8c1.3,0.8,1.3,2.3-0.1,3c-0.7,0.3-1.5,0.5-2.2,0.5c-1,0-1.6-0.8-1.4-1.8
		c0.1-0.4,0.1-0.9,0.2-1.4c-0.2,0-0.3,0-0.3,0c-1.2,0.4-2.5,0.8-3.7,1.3c-0.1,0-0.2,0.4-0.1,0.5c0.5,1.3,1,2.6,1.5,3.9
		c0.1,0.1,0.2,0.3,0.3,0.5c0.1-0.3,0.2-0.4,0.3-0.6c0.4-0.7,1.1-1.1,1.9-1.1c0.8,0,1.2,0.6,1.5,1.2c0.2,0.4,0.3,0.9,0.4,1.3
		c0.1,0.6,0,1.3-0.6,1.6c-0.6,0.4-1.3,0.4-2,0.1C397.8,60.6,397.6,60.5,397.3,60.3z"/>
	<path class="st15" d="M417.4,45c0.4,1,0.7,1.9,1,2.8c0.1,0.3,0.2,0.7,0.4,1c0.2,0.3,0.5,0.7,0.7,0.7c0.4-0.1,0.7-0.4,1-0.7
		c0.2-0.2,0.3-0.5,0.5-0.7c0.6-0.4,1.1-0.3,1.5,0.3c0.3,0.5,0.5,1,0.5,1.5c0,0.4-0.2,0.9-0.4,1.1c-0.3,0.2-0.9,0-1.3,0
		c-0.2,0-0.3-0.2-0.4-0.2c-0.3,0-0.7,0-0.9,0.1c-0.1,0.1-0.2,0.6-0.1,0.8c0.4,0.9,0.8,1.8,1.2,2.7c0.7,1.6,0.8,1.6-0.9,2.2
		c-0.8,0.3-1.6,0.5-2.4,0.8c-0.3-0.5-0.3-0.8,0-1.2c0.5-0.6,0.3-1.3,0-1.8c-0.3-0.6-0.9-0.6-1.5-0.5c-0.9,0.1-1.7,0.4-2.4,1.1
		c-0.8,0.8-0.5,1.9,0.5,2.4c0.1,0.1,0.3,0.1,0.3,0.1c0.2,0.2,0.5,0.4,0.6,0.7c0,0.1-0.3,0.4-0.5,0.5c-1.4,0.5-2.9,1.1-4.4,1.6
		c-0.7-1.4-1.3-2.7-2-4.1c0-0.1,0.1-0.1,0.1-0.2c0.2,0.1,0.5,0.1,0.7,0.2c0.7,0.4,1.4,0.4,2-0.1c0.6-0.4,0.7-1.2,0.5-1.8
		c-0.2-0.7-0.5-1.4-1-1.9c-0.8-0.9-2.3-0.6-2.7,0.6c-0.1,0.2-0.2,0.5-0.4,0.7c-0.1,0-0.1,0-0.2,0c-0.5-1.4-1-2.9-1.6-4.4
		c0.4-0.2,0.6-0.3,0.9-0.4c1.1-0.4,2.2-0.7,3.2-1.1c0.5-0.2,1.2-0.4,1.2-1c0-0.6-0.4-1.1-1-1.3c-0.5-0.2-0.9-0.6-0.9-1.2
		c0-0.6,0.4-0.9,0.8-1.1c0.5-0.2,1.1-0.4,1.6-0.4c0.9,0,1.3,0.7,0.9,1.5c-0.1,0.3-0.3,0.6-0.3,0.8c0.2,1.1,0.3,1.6,1.6,1.3
		c0.9-0.2,1.7-0.6,2.5-1C416.9,45.2,417.1,45.1,417.4,45z"/>
	<path class="st15" d="M414.3,37c-0.1-0.1-0.3-0.2-0.4-0.3c-0.7-0.5-1.4-0.5-2.2,0c-0.7,0.5-0.7,1.2-0.6,1.9
		c0.1,0.5,0.3,0.9,0.5,1.3c0.3,0.6,0.8,1.2,1.5,1.1c0.8,0,1.5-0.4,1.8-1.2c0.1-0.2,0.2-0.3,0.3-0.6c0.2,0.4,0.4,0.6,0.6,0.9
		c0.5,1.2,0.9,2.4,1.3,3.6c0.2,0.4,0,0.7-0.4,0.8c-1,0.4-2.1,0.7-3.1,1.1c-0.2,0.1-0.6,0-0.6-0.1c-0.1-0.2-0.1-0.6-0.1-0.8
		c0-0.2,0.3-0.4,0.3-0.7c0.3-1.1-0.4-2.1-1.5-2c-0.8,0.1-1.6,0.3-2.3,0.7c-1.2,0.7-1,2.4,0.3,3c0.2,0.1,0.4,0.2,0.6,0.4
		c0.3,0.3,0.3,0.6-0.1,0.8c-0.7,0.3-1.3,0.5-2,0.8c-0.8,0.3-1.6,0.6-2.4,0.9c-0.5-1.3-0.9-2.4-1.3-3.5c-0.1-0.3-0.2-0.6-0.4-0.8
		c-0.2-0.2-0.6-0.6-0.8-0.5c-0.3,0.1-0.6,0.4-0.9,0.7c-0.1,0.1-0.1,0.2-0.1,0.4c-0.3,0.8-1.3,1-1.8,0.4c-0.4-0.5-0.7-1.2-0.8-1.9
		c-0.2-1,0.6-1.5,1.5-1c0.2,0.1,0.4,0.2,0.6,0.3c0.8,0.2,1.4-0.2,1.2-1c-0.2-1-0.6-2-0.9-3c-0.1-0.3-0.2-0.5-0.4-0.9
		c0.5-0.2,0.9-0.3,1.3-0.5c1-0.4,2-0.7,3-1.1c1.1-0.5,1.1-1.2,0.2-2c-0.1-0.1-0.2-0.2-0.4-0.2c-0.5-0.2-1-0.3-1-0.9
		c0-0.6,0.5-1,1-1.2c0.5-0.2,1-0.4,1.4-0.4c0.8-0.1,1.3,0.6,1,1.4c0,0.1-0.2,0.3-0.2,0.4c0,0.5,0,1,0.2,1.4c0.1,0.2,0.7,0.2,1,0.1
		c1.1-0.3,2.2-0.6,3.3-1c0.5-0.2,0.7,0,0.9,0.4c0.5,0.9,0.8,1.8,0.8,2.9C414.4,36.9,414.4,36.9,414.3,37z"/>
	<path class="st15" d="M396.2,39.3c0.7-0.2,1.3-0.5,2-0.7c0.8-0.2,1.6-0.4,2.3-0.7c0.6-0.2,0.9,0,1.1,0.5c0.4,1.1,0.9,2.2,0.9,3.6
		c-0.4-0.1-0.7-0.1-0.9-0.3c-0.7-0.4-1.3-0.3-1.9,0.1c-0.5,0.3-0.6,0.9-0.6,1.5c0.1,0.9,0.4,1.7,1.1,2.4c0.9,0.8,2.3,0.5,2.7-0.6
		c0.1-0.3,0.1-0.5,0.1-0.8c0.1,0,0.2,0,0.4,0.1c0.2,0.2,0.4,0.4,0.5,0.6c0.4,1.1,0.8,2.3,1.2,3.5c0.1,0.4-0.1,0.5-0.4,0.6
		c-1,0.3-2.1,0.6-3.1,1c-0.4,0.2-1,0.5-1,0.8c0,0.4,0.5,0.8,0.7,1.2c0,0,0,0,0.1,0c0.5,0.3,1.1,0.7,1,1.3c-0.1,0.7-0.7,0.9-1.3,1.2
		c-0.1,0.1-0.3,0.1-0.4,0.1c-1.5,0.3-2-0.2-1.7-1.7c0-0.2,0.1-0.3,0.1-0.5c0.1-0.8-0.4-1.1-1.1-0.9c-0.7,0.2-1.4,0.6-2.1,0.8
		c-0.5,0.2-0.9,0.3-1.4,0.4c-0.1,0-0.4-0.2-0.5-0.4c-0.3-0.8-0.5-1.6-0.8-2.5c-0.1-0.3-0.2-0.7-0.4-1c-0.2-0.3-0.5-0.7-0.7-0.7
		c-0.3,0-0.5,0.4-0.8,0.7c-0.3,0.3-0.6,0.6-1,0.9c-0.4,0.3-0.8,0.1-1.1-0.3c-0.3-0.6-0.7-1.2-0.8-1.9c-0.2-1.1,0.8-1.6,1.7-1.2
		c0.4,0.2,0.9,0.6,1.3,0.2c0.5-0.4,0.1-0.9-0.1-1.4c-0.3-1-0.7-2-1.1-3c-0.2-0.5-0.1-0.8,0.5-1c0.7-0.2,1.3-0.5,2-0.7
		c0.3-0.1,0.6,0,0.9,0c0,0.3,0,0.7,0,1c0,0.5-0.1,1,0,1.5c0.1,0.5,0.6,0.8,1.1,0.8c1.1,0.1,2.1-0.3,2.9-1.1c0.8-0.9,0.5-2-0.6-2.4
		c-0.4-0.2-0.7-0.5-1-0.8C396.2,39.6,396.2,39.5,396.2,39.3z"/>
	<path class="st15" d="M397.3,60.3c0.3,0.2,0.5,0.3,0.7,0.4c0.7,0.4,1.4,0.3,2-0.1c0.6-0.4,0.7-1,0.6-1.6c-0.1-0.5-0.2-0.9-0.4-1.3
		c-0.3-0.6-0.7-1.2-1.5-1.2c-0.8,0-1.4,0.4-1.9,1.1c-0.1,0.2-0.2,0.4-0.3,0.6c-0.2-0.2-0.3-0.3-0.3-0.5c-0.5-1.3-1-2.6-1.5-3.9
		c-0.1-0.1,0-0.5,0.1-0.5c1.2-0.4,2.5-0.9,3.7-1.3c0.1,0,0.2,0,0.3,0c-0.1,0.5-0.1,1-0.2,1.4c-0.2,1,0.3,1.8,1.4,1.8
		c0.8,0,1.6-0.2,2.2-0.5c1.4-0.7,1.4-2.1,0.1-3c-0.3-0.2-0.6-0.5-1.1-0.8c0.7-0.3,1.2-0.5,1.7-0.7c0.8-0.3,1.6-0.5,2.3-0.8
		c0.4-0.2,0.5,0.1,0.6,0.4c0.2,1,0.5,1.9,0.8,2.9c0.1,0.3,0.1,0.6,0.3,0.8c0.2,0.3,0.6,0.7,0.8,0.7c0.3,0,0.7-0.4,0.9-0.8
		c0.2-0.6,0.6-1,1.1-0.9c0.4,0,0.9,0.4,1.1,0.7c0.3,0.4,0.5,1,0.5,1.5c0.1,1-0.5,1.5-1.5,1.1c-0.3-0.1-0.5-0.3-0.8-0.3
		c-0.8-0.1-1.1,0.3-0.8,1c0.5,1.1,1,2.1,1.5,3.2c0.1,0.2,0.2,0.5,0.3,0.8c-0.5,0.2-0.9,0.3-1.3,0.5c-0.8,0.3-1.7,0.6-2.5,0.9
		c-0.4,0.2-0.9,0.6-0.9,0.9c0,0.6,0.4,1.1,1,1.4c0.1,0.1,0.3,0.1,0.4,0.1c0.6,0.2,0.8,0.8,0.4,1.3c-0.7,0.8-1.6,1.2-2.6,1.1
		c-0.6-0.1-0.9-0.8-0.6-1.5c0.1-0.4,0.2-0.8,0.2-1.2c-0.1-0.7-0.4-0.9-1.1-0.6c-0.9,0.3-1.9,0.7-2.8,1.1c-1.5,0.6-1.3,1-2-0.8
		c-0.3-0.8-0.5-1.7-0.7-2.6C397.3,60.7,397.3,60.6,397.3,60.3z"/>
</g>
</svg>
