<svg xmlns="http://www.w3.org/2000/svg" viewBox="0 0 496.89 457.92"><defs><style>.cls-1{fill:#f3edff;}.cls-2{fill:#c8c1e8;}.cls-3{fill:#dad4f8;}.cls-4{fill:#37b7a4;}.cls-5{fill:#2a9d8f;}.cls-6{fill:#fff;}.cls-7{fill:#e55812;}.cls-8{fill:#a6afe2;}.cls-9{fill:#ffb8b8;}.cls-10{fill:#f18b8b;}.cls-11{fill:#454975;}.cls-12{fill:#3b3e63;}.cls-13{fill:#bb4344;}.cls-14{fill:#3fb1a3;}.cls-15{fill:#ff7031;}.cls-16{fill:#bbc3ed;}.cls-17{fill:#1b645b;}.cls-18{fill:#393c61;}.cls-19{fill:none;stroke:#f3edff;stroke-miterlimit:10;stroke-width:2.17px;}</style></defs><g id="Layer_2" data-name="Layer 2"><g id="Objects"><path class="cls-1" d="M461.94,233.6c16.88-18.1,32.73-42.52,24.11-65.41s-37-31.75-61.9-36.14-53.11-9.24-66.89-29.73c-13.91-20.67-7.26-49.68-20.93-70.5C321.81,9.71,290.9,5.32,263.89,3.11,222.7-.26,180.28-3.51,140.81,8.37S65.06,51.1,60.57,90.79C56,131.13,84.18,172,71.79,210.82,58.93,251.07,6.57,273.27,1.35,315.09-1.38,337,10,358,21.06,377.26,35.19,402,49.31,428.21,63.44,452.91h350.7c-5-6.87-.05-16.76,7-21.73s15.85-7.29,22.62-12.6c17.91-14.07,13.87-41.69,3.77-61.74s-24.95-39.66-23.73-61.93C425.12,270.58,445.06,251.7,461.94,233.6Z"/><path class="cls-1" d="M30.1,250.56c37.84-36.43,34.95-55.82,27.19-104.36-3.79-23.68-33.91-.47-44.66,35.43C1.35,219.31,10,269.94,30.1,250.56Z"/><path class="cls-2" d="M153.39,434.64c-5,8.89-74,27.93-74.53,1.71-.43-22.08,49.74-15.5,68.15-7.75-5.49-5.37-10.75-10.91-15.79-16.43Q124,404.27,117.3,395.9c-10.83,6.9-77.31,8.57-72-16.18,4.26-19.8,44.43-6.38,63.51,5-6.71-9.13-13-18.6-18.75-28.33-8,6.89-78.83,4.5-71.57-20.57,6.06-20.95,51-.57,66.8,12.32Q76.41,332.35,69,315.7C58.91,321-9.28,309.4,1.06,285.77c8.56-19.55,48.81,5,63.68,20q-3.88-9.39-7.29-19c-10.64-4.34-45.9-63.69-21.23-71.12,23.32-7,29.69,54.57,24.79,68.57Q64.85,295,69.3,305.61c.87-19.68,17.19-69.43,36.91-58.44,22.2,12.38-22.17,63.54-33.62,66.1q7.27,16.38,16,32c-1.17-20.54,8.54-69.53,29.06-61.4C141,293.12,105,348.26,93.45,353.6a359.08,359.08,0,0,0,23.11,34.21c-4-17.27,1.67-74,24.08-66.89,24.7,7.85-10.37,69-20.36,71.7q6.85,8.64,14.28,16.89c4.44,4.91,9.09,9.84,13.93,14.64-7.14-19.53-12.18-68.55,9.68-66.88,25,1.91,7,65.18-2.45,73.77a173.85,173.85,0,0,0,29,22c2.37,1.39-.19,4.82-2.54,3.43A173.58,173.58,0,0,1,153.39,434.64Z"/><path class="cls-3" d="M258.81,455.81a424.81,424.81,0,0,1,25.27-93,432.65,432.65,0,0,1,45.29-85.12,424.52,424.52,0,0,1,29.4-38.07c1.33-1.54,2.68-3.06,4-4.58,1.77-2-1.41-4.61-3.17-2.64a429,429,0,0,0-30.34,38.2,440.72,440.72,0,0,0-25.77,41.28,435.18,435.18,0,0,0-21,43.78,440.85,440.85,0,0,0-16.09,46.17,426,426,0,0,0-10.73,47.35c-.34,2-.66,4-1,6-.4,2.62,3.67,3.27,4.07.64Z"/><path class="cls-3" d="M324.34,285.63c-3-31.5,5.32-78.15,6.07-109.16.82-34.22,5.6-71,34.53-90.85,7.54-5.17,17.17-9,27.84-7.6,15,2,28.09,14.27,33.18,26.9s3.74,25.48,1.32,37.53c-11.84,58.85-48.74,110.18-102.94,143.18"/><path class="cls-3" d="M278.87,371c-20.76-21.77-41.64-61.47-59.22-85.07-19.39-26-37.24-56.29-26.54-87.91,2.79-8.24,7.95-16.72,17-21.85,12.74-7.2,30-5.64,41.32.84s17.8,16.86,23,27.27c25.32,50.83,26.91,110.6,4.43,166.72"/><path class="cls-3" d="M263,416.81c16.34-30,51.62-69.78,70.93-98,21.31-31.1,47.58-63.12,84.49-70.81,9.62-2,20.25-2,28.6,3.15,11.74,7.29,15.66,23.3,12.44,36.73S447.38,312.67,438,322.84a304.59,304.59,0,0,1-175,94"/><path class="cls-2" d="M250.84,457.4c19.72-5.41,38.84-15.64,56.4-26.81.77.52,1.89,1.23,3.31,2a86.33,86.33,0,0,0,12.12,5.6A110.52,110.52,0,0,0,339.89,443a130.32,130.32,0,0,0,19.86,2.22,128.54,128.54,0,0,0,20-.91c3.21-.4,6.29-.93,9.24-1.56s5.69-1.39,8.28-2.14,4.91-1.6,7-2.43,3.91-1.64,5.41-2.38a45.57,45.57,0,0,0,4.77-2.62,45.2,45.2,0,0,0-4.57-2.92c-1.47-.85-3.25-1.77-5.28-2.74s-4.34-1.92-6.85-2.89-5.23-1.87-8.13-2.66-5.94-1.55-9.1-2.15a125.34,125.34,0,0,0-19.86-2.19,129.68,129.68,0,0,0-20,.94,106.69,106.69,0,0,0-17.52,3.69c-2.52.76-4.83,1.58-6.9,2.4l3.92-2.66a414.92,414.92,0,0,0,36.07-27.75q.89.54,2.1,1.23a83.14,83.14,0,0,0,12.12,5.59,108.17,108.17,0,0,0,17.23,4.83,127.43,127.43,0,0,0,19.86,2.22,123.6,123.6,0,0,0,19.95-.91c3.2-.4,6.29-.92,9.23-1.55s5.71-1.39,8.29-2.14,4.91-1.61,7-2.42,3.92-1.65,5.43-2.39a45,45,0,0,0,4.75-2.62,42.18,42.18,0,0,0-4.56-2.92c-1.48-.85-3.25-1.78-5.27-2.74s-4.34-1.93-6.86-2.89-5.23-1.86-8.12-2.67-5.95-1.53-9.11-2.14a128.71,128.71,0,0,0-39.82-1.26,109.86,109.86,0,0,0-17.52,3.7c-2.69.82-5.14,1.69-7.32,2.54q16.51-14.82,31.52-31.2c.73.18,1.55.38,2.5.59a87.54,87.54,0,0,0,13.25,1.65,106.43,106.43,0,0,0,17.89-.62,126.61,126.61,0,0,0,19.59-3.89,124.93,124.93,0,0,0,18.76-6.9c2.92-1.35,5.71-2.78,8.31-4.28s5-3,7.26-4.54,4.21-3,6-4.44,3.25-2.75,4.44-3.92a42.75,42.75,0,0,0,3.75-3.94,46,46,0,0,0-5.24-1.4c-1.65-.35-3.61-.7-5.86-1s-4.7-.53-7.39-.69-5.57-.19-8.56-.07-6.13.33-9.34.69a128.71,128.71,0,0,0-38.32,10.87,107.75,107.75,0,0,0-15.28,8.63Q419,329.1,430.11,314.06a85.5,85.5,0,0,0,9.26-6.73,108.78,108.78,0,0,0,12.72-12.59A128.4,128.4,0,0,0,473,260.79c1.23-3,2.29-5.92,3.21-8.78s1.62-5.65,2.25-8.26,1-5.08,1.36-7.31.52-4.21.61-5.89a39.33,39.33,0,0,0,.07-5.43,44.51,44.51,0,0,0-4.79,2.52c-1.46.86-3.14,1.93-5,3.23s-3.84,2.81-5.9,4.53-4.22,3.62-6.35,5.74-4.28,4.39-6.37,6.83a128.17,128.17,0,0,0-11.74,16.18,132.12,132.12,0,0,0-9.07,17.8A108.45,108.45,0,0,0,425.81,299a86.93,86.93,0,0,0-2,13.2c-.07,1.14-.1,2.11-.11,2.93A506.87,506.87,0,0,1,385,360.86a90.52,90.52,0,0,0,3.49-11.1,110.31,110.31,0,0,0,2.76-17.68,129.66,129.66,0,0,0-.14-20,124.72,124.72,0,0,0-3.25-19.71q-1.17-4.71-2.63-9c-.95-2.83-2-5.5-3.09-8s-2.19-4.7-3.25-6.68-2.09-3.71-3-5.12a43.14,43.14,0,0,0-3.15-4.4,43,43,0,0,0-2.37,4.87c-.67,1.55-1.37,3.42-2.1,5.56s-1.4,4.53-2.06,7.13-1.23,5.43-1.68,8.4-.83,6.08-1.07,9.28a126.17,126.17,0,0,0,.17,20,129.42,129.42,0,0,0,3.27,19.72,107.62,107.62,0,0,0,5.74,16.95,85.11,85.11,0,0,0,6.24,11.8c.63,1,1.21,1.85,1.7,2.51a424,424,0,0,1-44.78,39.73c.26-.57.55-1.22.86-1.94a86.6,86.6,0,0,0,4.11-12.7,109.16,109.16,0,0,0,2.78-17.67,129.79,129.79,0,0,0-.14-20,127.32,127.32,0,0,0-3.25-19.73c-.78-3.11-1.66-6.13-2.64-9s-2-5.51-3.09-8-2.17-4.71-3.25-6.68-2.08-3.71-3-5.13A47.25,47.25,0,0,0,325,300a42.76,42.76,0,0,0-2.37,4.88c-.66,1.55-1.36,3.42-2.09,5.56s-1.41,4.53-2.05,7.15-1.26,5.42-1.69,8.37-.84,6.09-1.07,9.31A128.76,128.76,0,0,0,319.18,375a110.41,110.41,0,0,0,5.74,16.95,87.43,87.43,0,0,0,6.24,11.8c.89,1.4,1.68,2.5,2.23,3.25-6.1,4.6-12.33,9-18.73,13.25-7.83,5.18-16,10.36-24.43,15.15.34-.73.75-1.6,1.17-2.64A82.82,82.82,0,0,0,295.52,420a105.13,105.13,0,0,0,2.77-17.67,129,129,0,0,0-3.36-39.7c-.78-3.14-1.68-6.16-2.65-9s-2-5.51-3.09-8S287,341,285.94,339s-2.1-3.7-3-5.11a45.08,45.08,0,0,0-3.16-4.41,43.65,43.65,0,0,0-2.38,4.88c-.65,1.55-1.37,3.42-2.08,5.55s-1.41,4.54-2.07,7.15-1.24,5.43-1.67,8.38-.85,6.08-1.08,9.29a128.42,128.42,0,0,0,3.44,39.71,109.23,109.23,0,0,0,5.73,16.94,86.1,86.1,0,0,0,6.25,11.8c.91,1.44,1.71,2.56,2.27,3.31-12.38,6.89-25.34,12.84-38.68,16.5C246.66,453.79,248,458.19,250.84,457.4Z"/><path class="cls-4" d="M164.62,51.18a10,10,0,0,1,9.94,10,3.32,3.32,0,0,0,6.63,0,16.57,16.57,0,0,0-16.57-16.57,3.31,3.31,0,0,0,0,6.62Z"/><path class="cls-4" d="M164.62,37.93a23.2,23.2,0,0,1,23.2,23.2,3.32,3.32,0,0,0,6.63,0A29.83,29.83,0,0,0,164.62,31.3a3.32,3.32,0,0,0,0,6.63Z"/><path class="cls-5" d="M193.62,77.4a3.3,3.3,0,0,0-2.39-2.16L171.35,70.7a3.32,3.32,0,0,0-3,.86c-.46.43-.5.47-2.65,4.58a32.9,32.9,0,0,1-16.14-16.21c4.21-2.12,4.24-2.12,4.67-2.61a3.34,3.34,0,0,0,.87-3l-4.54-19.65a3.32,3.32,0,0,0-2.16-2.39,12.21,12.21,0,0,0-2.38-.6,13.81,13.81,0,0,0-2.55-.33,15.25,15.25,0,0,0-15.25,15.25,51.1,51.1,0,0,0,51,51,15.25,15.25,0,0,0,15.25-15.25h0a16.46,16.46,0,0,0-.2-2.52A14.24,14.24,0,0,0,193.62,77.4Z"/><path class="cls-5" d="M356,60.48H315.27a15.39,15.39,0,0,1-15.34-15.34h0A15.39,15.39,0,0,1,315.27,29.8H356a15.38,15.38,0,0,1,15.34,15.34h0A15.38,15.38,0,0,1,356,60.48Z"/><path class="cls-5" d="M359.82,65.2a3.39,3.39,0,1,1-3.39-3.39A3.39,3.39,0,0,1,359.82,65.2Z"/><path class="cls-6" d="M326.73,44.73a4.45,4.45,0,1,1-4.45-4.45A4.44,4.44,0,0,1,326.73,44.73Z"/><path class="cls-6" d="M340.08,44.73a4.45,4.45,0,1,1-4.45-4.45A4.44,4.44,0,0,1,340.08,44.73Z"/><path class="cls-6" d="M353.43,44.73A4.45,4.45,0,1,1,349,40.28,4.44,4.44,0,0,1,353.43,44.73Z"/><path class="cls-7" d="M296.64,96.13h40.71A15.4,15.4,0,0,0,352.7,80.79h0a15.4,15.4,0,0,0-15.35-15.35H296.64A15.39,15.39,0,0,0,281.3,80.79h0A15.39,15.39,0,0,0,296.64,96.13Z"/><path class="cls-7" d="M292.81,100.84a3.39,3.39,0,1,0,3.39-3.39A3.39,3.39,0,0,0,292.81,100.84Z"/><path class="cls-6" d="M308.1,80.51a4.45,4.45,0,1,1-4.45-4.45A4.45,4.45,0,0,1,308.1,80.51Z"/><path class="cls-6" d="M321.45,80.51A4.45,4.45,0,1,1,317,76.06,4.45,4.45,0,0,1,321.45,80.51Z"/><path class="cls-6" d="M334.8,80.51a4.45,4.45,0,1,1-4.45-4.45A4.45,4.45,0,0,1,334.8,80.51Z"/><path class="cls-8" d="M236.69,187.69a18,18,0,0,1-6.55,8.44,12.44,12.44,0,0,1-11.63,1.74c-6.84-2.64-9.77-11.5-6.56-19.77s11.34-12.83,18.17-10.18a.31.31,0,0,1,.12.05C237,170.67,239.88,179.47,236.69,187.69Z"/><path class="cls-9" d="M69.14,175.34c7.15,10.91,28,42.59,39.66,59.76-8.85,16.57-27.4,25.74-27.4,25.74s-9.59-25.66-14.64-39.54-9-24.7-8.81-31.81a1.49,1.49,0,0,1,1.37-1.42l-.76-1.38A3.36,3.36,0,0,1,60,182a3.32,3.32,0,0,1,3.3.23L61.91,180a4.3,4.3,0,0,1,7.23-4.64Z"/><path class="cls-10" d="M75.79,219.39c.22-8.62,7.94-15.43,10.9-17.33l1,1.6c-3.79,2.43-9.85,8.86-10,15.78Z"/><rect class="cls-10" x="68.12" y="180.97" width="0.95" height="22.14" transform="translate(-87.4 60.7) rotate(-30.25)"/><rect class="cls-10" x="62.93" y="187.38" width="0.95" height="20.48" transform="translate(-79.26 46.89) rotate(-25.64)"/><path class="cls-9" d="M264.27,203.57l.05.73.42,22.25,1.08,56.51-67.65-18.19,32.59-21.44-.33-8.51-1.11-29.56a17.5,17.5,0,0,1,34.95-1.79Z"/><path class="cls-10" d="M264.27,203.57l.05.73.42,22.25a107.94,107.94,0,0,1-10.78,5c-5.87,2.35-11.08,4-17.42,4a21.55,21.55,0,0,1-6.11-.61l-1.11-29.56a17.5,17.5,0,0,1,34.95-1.79Z"/><path class="cls-11" d="M278.68,192c-5,12.14-8.79,16.86-12.9,15.56-11.87,20.32-28.19,28-42.76,24-11.81-3.17-11.21-20.39-7.89-36,.78-3.6,1.69-7.14,2.62-10.38a177.92,177.92,0,0,1,7.63-20.68c-9.36-29,18.73-35.36,37.27-14.22a9,9,0,0,1,3.15-1.56c4.89-1.38,10.4,2.26,14.51,15.77C288.79,173.81,283.72,179.85,278.68,192Z"/><path class="cls-12" d="M272.07,163.74c-1.54-2.86-4.39-6.39-9.42-13.43a9,9,0,0,1,3.15-1.56C268.23,153.31,271.69,160.42,272.07,163.74Z"/><path class="cls-9" d="M274.81,196.17c-5.69,11.45-14.5,6.3-15.29,1.71-4.61,6.71-7.6,8.44-9.65,8.65s-7.76-3.39-10.21-4.18-14.82,2.77-24.5-6.73l0,0c.78-3.6,1.69-7.14,2.62-10.38a177.92,177.92,0,0,1,7.63-20.68c5.24-6.66,21.26-19.48,40,13.54-1.5,6.37-2.57,11.26-3.92,14.53C270.59,181.55,280.5,184.75,274.81,196.17Z"/><path class="cls-10" d="M262.86,194.61a9,9,0,0,1,1.85-3,9.37,9.37,0,0,1,2.81-2.21,7.21,7.21,0,0,1,3.6-.87,3.67,3.67,0,0,1,1.88.56,1.8,1.8,0,0,1,.9,1.63,1.79,1.79,0,0,0-1.28-.78,3.8,3.8,0,0,0-1.42.07,12.42,12.42,0,0,0-2.81,1.08,27.41,27.41,0,0,0-2.71,1.63C264.76,193.33,263.89,194,262.86,194.61Z"/><path class="cls-10" d="M264,193.34a3.2,3.2,0,0,1,1.75-1.05,4.26,4.26,0,0,1,2.1,0,3.16,3.16,0,0,1,1.81,1.19,2.47,2.47,0,0,1,.36,2,3.16,3.16,0,0,0-2.41-2.31,6.31,6.31,0,0,0-1.75-.18A6.61,6.61,0,0,0,264,193.34Z"/><path class="cls-10" d="M230.92,181.63c-5.68,7.43-12.42,10.57-13.27,12.56s2.09,5.86,9.42,7.2C231.41,198.64,227.9,194.14,230.92,181.63Z"/><ellipse class="cls-7" cx="242.14" cy="184.82" rx="2.57" ry="3.16" transform="translate(-10.63 14.83) rotate(-3.43)"/><path class="cls-7" d="M226.34,182.94a2.62,2.62,0,1,1-1.93-3.58A2.91,2.91,0,0,1,226.34,182.94Z"/><path class="cls-11" d="M245.31,169c5.11.14,7.54,6.19,8.31,9.48.38,1.62-.69,2.06-1.56.54-1.06-1.85-3.94-5.23-7.2-6.52C242.56,171.54,243.32,168.89,245.31,169Z"/><path class="cls-11" d="M230.68,166.45c-4.31-1.77-7.93,1.29-9.75,3.86-1,1.35-.25,2.7,1.21,1.74,1.8-1.17,3.86-2.61,7.35-2.28C232,170,232.52,167.2,230.68,166.45Z"/><path class="cls-6" d="M184.12,421c15.52,5.45,31.51,8.74,58.09,6.24,15.53-50.14,18-170.59,18.53-177.3-12.17,4.68-27.2,7.4-33.55-7.4C196.74,276.85,183.94,329.3,184.12,421Z"/><path class="cls-7" d="M264.94,237.09c-16.45,9.5-26.81,38.33-29.54,82.38s-6.12,84.32-5,97.45,5,34.36,28.58,36.25,58.29,3.11,58.29,3.11-27.69-170-28.63-180.18S284.3,250,264.94,237.09Z"/><path class="cls-9" d="M460.78,426.77c-10.84-7.25-42.34-28.36-59.4-40.19-16.66,8.71-26,27.17-26,27.17s25.57,9.82,39.42,15,24.62,9.18,31.72,9.09a1.49,1.49,0,0,0,1.43-1.35l1.38.77a3.34,3.34,0,0,0,4.46-4.73l2.28,1.44a4.3,4.3,0,0,0,4.7-7.19Z"/><path class="cls-9" d="M410.76,390.81l40.33,11.33a4.74,4.74,0,0,1,3.3,5.5h0A4.28,4.28,0,0,1,449,411l-24.1-6.84S405.84,400.47,410.76,390.81Z"/><path class="cls-10" d="M421.43,418.94a16.23,16.23,0,0,1-4.64.79l0-1.9c6.92-.12,13.4-6.13,15.86-9.89l1.6,1C432.65,411.37,427.81,416.88,421.43,418.94Z"/><rect class="cls-10" x="443.6" y="416.09" width="0.95" height="22.14" transform="translate(-150.09 590.38) rotate(-59.25)"/><rect class="cls-10" x="437.97" y="422.06" width="0.95" height="20.48" transform="translate(-142.81 635.42) rotate(-63.86)"/><path class="cls-7" d="M264.94,237.09c21.27,15.06,27.86,25.89,34.26,39s30.45,56.27,37.6,65.42,64.58,45,64.58,45l-30.67,33.86s-58.79-25.9-70.09-38.1S264.36,324.78,264.94,237.09Z"/><path class="cls-7" d="M230.6,239.83l.22,5.63c-12.84,14.13-22.79,39-28.29,70.93-6.23,36.16-8.63,74.61-8.88,106.44-.14,21.89-20.37,21.62-30.38,14.14,2.12-28.81,10.46-98.36,15-119.61C182.58,297,191.36,237.87,230.6,239.83Z"/><path class="cls-7" d="M230.62,240.19l.07,1.61c-20.31,7.95-31.15,46.39-31.15,46.39s-12.65,39.72-24.27,48.9c-22.53,17.82-39.32,13.09-52-.38-6.7-7.12-49-74.62-49-74.62l34.6-27.44L148,287.27s33.24-23.72,45.77-32.94C205.11,246,214.74,240.05,230.62,240.19Z"/><rect class="cls-13" x="279.91" y="313.62" width="1.9" height="58.69" transform="translate(-105.37 125.4) rotate(-21.29)"/><rect class="cls-13" x="166.41" y="306.74" width="30.74" height="1.9" transform="translate(-166.38 388.34) rotate(-72.47)"/><path class="cls-5" d="M72.42,197.23,36.9,161.72v30.42a10.65,10.65,0,0,0,10.66,10.65H97.28a10.65,10.65,0,0,0,10.65-10.65V161.72Z"/><path class="cls-14" d="M107.93,161.72v-5.1A10.66,10.66,0,0,0,97.28,146H47.56A10.66,10.66,0,0,0,36.9,156.62v5.1l35.52,35.51Z"/><circle class="cls-7" cx="101.13" cy="152.86" r="13.09"/><rect class="cls-15" x="54.18" y="192.63" width="23.32" height="5.21"/><path class="cls-9" d="M101.84,226.2l-9.65-38.85a4.27,4.27,0,0,0-5.06-3.16h0a4.29,4.29,0,0,0-3.24,5.23l5.83,23.22S92.71,231,101.84,226.2Z"/><path class="cls-10" d="M231.59,205.54c0,.06,0,.13,0,.19-1.42,11.23-14.8,12.37-15.79-1.34a18.44,18.44,0,0,1-.07-2.26C219.41,202.27,228.3,204.53,231.59,205.54Z"/><path class="cls-1" d="M231.59,205.54c0,.06,0,.13,0,.19a25.8,25.8,0,0,1-4.91.71c-4.39.22-8.36-.6-10.88-2.05a18.44,18.44,0,0,1-.07-2.26C219.41,202.27,228.3,204.53,231.59,205.54Z"/><path class="cls-8" d="M280.91,198a18.08,18.08,0,0,1-6.56,8.45,12.49,12.49,0,0,1-11.63,1.74c-6.84-2.65-9.77-11.51-6.56-19.78s11.34-12.82,18.18-10.18l.11.05C281.21,181,284.09,189.8,280.91,198Z"/><path class="cls-8" d="M270.12,178.45c5.22-7.33-.7-21.5-7.47-28.14,0,0-2.45-2.68-3.28-3.33,1.53,0,2.08.29,3.63,1.48s22.17,13.65,14.28,32.76C277.28,181.22,270.53,180.11,270.12,178.45Z"/><path class="cls-16" d="M280.91,198a18.08,18.08,0,0,1-6.56,8.45c-9.55,2.15-17.06-7.43-10.51-18.72a20.91,20.91,0,0,1,10.61-9.45C281.21,181,284.09,189.8,280.91,198Z"/><path class="cls-8" d="M261.52,201.35c-5.78,5.78-17.12,6.4-26.09,6.55a1.64,1.64,0,0,0-1.63,1.54h0a1.65,1.65,0,0,0,1.75,1.77c13.63-.76,22.11-1.62,27.9-7.82Z"/><circle class="cls-7" cx="235.48" cy="209.49" r="3.51"/><circle class="cls-3" cx="125.09" cy="92.13" r="12.95"/><path class="cls-3" d="M261.32,51.39A5.32,5.32,0,1,1,256,46.08,5.31,5.31,0,0,1,261.32,51.39Z"/><circle class="cls-3" cx="202.24" cy="126.28" r="3.8"/><path class="cls-3" d="M312,246.15a4.18,4.18,0,1,1-4.17-4.17A4.18,4.18,0,0,1,312,246.15Z"/><path class="cls-17" d="M333.1,324.18v80.39A14.38,14.38,0,0,1,318.71,419H176.06a14.37,14.37,0,0,1-14.37-14.38V324.18a14.38,14.38,0,0,1,14.37-14.39H318.71A14.39,14.39,0,0,1,333.1,324.18Z"/><polygon class="cls-18" points="277.78 416.35 232.26 416.35 230.65 356.83 258.68 356.83 277.78 416.35"/><path class="cls-8" d="M301.42,444.44h-27L263.3,358.51H231.48l-11.14,85.93h-27a4,4,0,0,0-4,4v4H305.46v-4A4,4,0,0,0,301.42,444.44Zm-42.37-42.87a11.66,11.66,0,1,1-23.31,0v-4.86a11.66,11.66,0,0,1,23.31,0Z"/><path class="cls-19" d="M245.71,403.35c-52.82-1-35,30.55-35.27,48"/><path class="cls-5" d="M380.27,144.46a67.33,67.33,0,0,0-17,2.11,6,6,0,0,0-4.47,5.78v44.7a6,6,0,0,0,7.22,5.81,68.1,68.1,0,0,1,14.27-1.46,64.66,64.66,0,0,1,21.51,3.49V148A64.39,64.39,0,0,0,380.27,144.46Z"/><path class="cls-5" d="M423.28,144.46a64.29,64.29,0,0,0-21.5,3.5v56.93a64.55,64.55,0,0,1,21.5-3.49,68.2,68.2,0,0,1,14.28,1.46,6,6,0,0,0,7.22-5.81v-44.7a6,6,0,0,0-4.47-5.78A67.47,67.47,0,0,0,423.28,144.46Z"/><path class="cls-17" d="M443.59,457.92H35.17a2.81,2.81,0,0,1-2.8-2.8h0a2.81,2.81,0,0,1,2.8-2.79H443.59a2.81,2.81,0,0,1,2.8,2.79h0A2.81,2.81,0,0,1,443.59,457.92Z"/></g></g></svg>