<svg id="visual" viewBox="0 0 900 600" width="900" height="600" xmlns="http://www.w3.org/2000/svg" xmlns:xlink="http://www.w3.org/1999/xlink" version="1.1"><rect x="0" y="0" width="900" height="600" fill="#c9c9cb"></rect><defs><linearGradient id="grad1_0" x1="33.3%" y1="0%" x2="100%" y2="100%"><stop offset="20%" stop-color="#c9c9cb" stop-opacity="1"></stop><stop offset="80%" stop-color="#c9c9cb" stop-opacity="1"></stop></linearGradient></defs><defs><linearGradient id="grad2_0" x1="0%" y1="0%" x2="66.7%" y2="100%"><stop offset="20%" stop-color="#c9c9cb" stop-opacity="1"></stop><stop offset="80%" stop-color="#c9c9cb" stop-opacity="1"></stop></linearGradient></defs><g transform="translate(900, 0)"><path d="M0 162.2C-14.4 161.7 -28.8 161.2 -42 156.7C-55.2 152.2 -67.3 143.8 -78 135.1C-88.7 126.4 -97.9 117.5 -108.9 108.9C-119.9 100.3 -132.7 92.1 -139.4 80.5C-146.2 68.9 -146.9 54.1 -149.7 40.1C-152.5 26.1 -157.4 13.1 -162.2 0L0 0Z" fill="#674188"></path></g><g transform="translate(0, 600)"><path d="M0 -162.2C14.5 -161.4 29 -160.6 41.7 -155.5C54.3 -150.4 65.1 -141 77.5 -134.2C89.9 -127.5 103.9 -123.3 114.7 -114.7C125.5 -106.1 133.2 -93.1 138.6 -80C144 -66.9 147.1 -53.7 150.7 -40.4C154.3 -27 158.3 -13.5 162.2 0L0 0Z" fill="#674188"></path></g></svg>