<svg xmlns="http://www.w3.org/2000/svg" xmlns:xlink="http://www.w3.org/1999/xlink" viewBox="0 0 2753.45 2788.56"><defs><style>.cls-1{fill:url(#linear-gradient);}.cls-2{opacity:0.3;}.cls-3{fill:#8ac5ff;}.cls-10,.cls-4{fill:#bdd0fb;}.cls-5{opacity:0.43;}.cls-6,.cls-8{fill:#fff;}.cls-7{fill:#bbe0ff;}.cls-8{opacity:0.52;}.cls-9{opacity:0.68;}.cls-10{opacity:0.7;}.cls-11{opacity:0.5;}.cls-12{fill:#002b5e;}.cls-13{fill:#fcbe1d;}.cls-14{fill:#2c5a92;}.cls-15{fill:url(#linear-gradient-2);}.cls-16{fill:url(#linear-gradient-3);}.cls-17{fill:url(#linear-gradient-4);}.cls-18{fill:url(#linear-gradient-5);}.cls-19{fill:url(#linear-gradient-6);}.cls-20{fill:url(#linear-gradient-7);}.cls-21{fill:url(#linear-gradient-8);}.cls-22{fill:url(#linear-gradient-9);}.cls-23{fill:url(#linear-gradient-10);}.cls-24{fill:url(#linear-gradient-11);}.cls-25{fill:url(#linear-gradient-12);}.cls-26{fill:url(#linear-gradient-13);}.cls-27{fill:url(#linear-gradient-14);}.cls-28{fill:url(#linear-gradient-15);}.cls-29{fill:#7d97f4;}</style><linearGradient id="linear-gradient" x1="2988.63" y1="2826.16" x2="922.08" y2="1017.94" gradientUnits="userSpaceOnUse"><stop offset="0" stop-color="#dae3fe"/><stop offset="1" stop-color="#e9effd"/></linearGradient><linearGradient id="linear-gradient-2" x1="483.28" y1="691.73" x2="1072.39" y2="691.73" xlink:href="#linear-gradient"/><linearGradient id="linear-gradient-3" x1="503.02" y1="580.95" x2="1057.38" y2="580.95" xlink:href="#linear-gradient"/><linearGradient id="linear-gradient-4" x1="870.11" y1="756.12" x2="1060.8" y2="756.12" gradientTransform="translate(496.2 -376.85) rotate(29.43)" xlink:href="#linear-gradient"/><linearGradient id="linear-gradient-5" x1="495.99" y1="752.7" x2="683.86" y2="752.7" gradientTransform="translate(964.05 -127.41) rotate(61.12)" xlink:href="#linear-gradient"/><linearGradient id="linear-gradient-6" x1="548.09" y1="2302.64" x2="1039.77" y2="2302.64" xlink:href="#linear-gradient"/><linearGradient id="linear-gradient-7" x1="-5921.99" y1="2665.21" x2="-5940.29" y2="2522.14" gradientTransform="matrix(-1, 0, 0, 1, -3983.41, 0)" gradientUnits="userSpaceOnUse"><stop offset="0" stop-color="#febbba"/><stop offset="1" stop-color="#ff928e"/></linearGradient><linearGradient id="linear-gradient-8" x1="-6321.94" y1="2714.24" x2="-6339.77" y2="2574.83" xlink:href="#linear-gradient-7"/><linearGradient id="linear-gradient-9" x1="1972.51" y1="1438.56" x2="2005.45" y2="1438.56" gradientUnits="userSpaceOnUse"><stop offset="0" stop-color="#e1473d"/><stop offset="1" stop-color="#e9605a"/></linearGradient><linearGradient id="linear-gradient-10" x1="-6187.17" y1="1798.61" x2="-5937.25" y2="1798.61" xlink:href="#linear-gradient-7"/><linearGradient id="linear-gradient-11" x1="-5956.86" y1="1485.32" x2="-5490.15" y2="1485.32" xlink:href="#linear-gradient-7"/><linearGradient id="linear-gradient-12" x1="-6124.88" y1="1223.56" x2="-5962.46" y2="1056.91" xlink:href="#linear-gradient-7"/><linearGradient id="linear-gradient-13" x1="-5889.32" y1="951.92" x2="-6091.83" y2="1219.81" xlink:href="#linear-gradient-7"/><linearGradient id="linear-gradient-14" x1="-6185.91" y1="1164.07" x2="-6023.49" y2="997.43" xlink:href="#linear-gradient-7"/><linearGradient id="linear-gradient-15" x1="2101.04" y1="1507.96" x2="2283.95" y2="1507.96" xlink:href="#linear-gradient-9"/></defs><g id="Layer_2" data-name="Layer 2"><g id="Illustration"><path class="cls-1" d="M2637.42,1887.07c-267.08,628.87-978.52,981.17-1595.48,886.14-100.4-15.47-375.63-61.53-619.3-278.84C-46.46,2076-146.78,1247.67,231.63,663.9,507,239,1000.74-1.82,1469.86,10.22c101.05,2.6,488.3,18.59,828.63,299.22,50,41.22,160.25,139.17,259.61,294.56C2791.43,968.87,2811.48,1477.23,2637.42,1887.07Z"/><g class="cls-2"><path class="cls-3" d="M1699.37,420.63a9.87,9.87,0,0,1-9.46-10.27c.43-10.59.41-21.36-.06-32a9.88,9.88,0,0,1,9.24-10.3h.19a9.87,9.87,0,0,1,10.3,9.43c.5,11.21.52,22.54.06,33.69a9.87,9.87,0,0,1-9.23,9.45A9,9,0,0,1,1699.37,420.63ZM1684,326.71c-1.92-10.48-4.31-21-7.09-31.19a9.88,9.88,0,1,1,19.06-5.2c2.93,10.76,5.44,21.81,7.46,32.83a9.88,9.88,0,0,1-7.94,11.49c-.39.07-.78.12-1.16.15A9.88,9.88,0,0,1,1684,326.71Zm-24.21-80.24c-4.19-9.76-8.85-19.46-13.87-28.82a9.88,9.88,0,0,1,17.42-9.33c5.28,9.87,10.19,20.08,14.6,30.35a9.88,9.88,0,0,1-5.18,13,10,10,0,0,1-3.27.78A9.88,9.88,0,0,1,1659.79,246.47Zm-41.54-72.82c-6.27-8.59-13-17-20-25a9.88,9.88,0,0,1,14.9-13c7.34,8.43,14.41,17.29,21,26.32a9.88,9.88,0,1,1-16,11.66Zm-56.73-61.74c-8-7-16.42-13.68-25-20A9.87,9.87,0,1,1,1548.17,76c9,6.61,17.89,13.68,26.31,21a9.88,9.88,0,0,1-13,14.91Zm-69-47.66c-9.36-5-19-9.71-28.8-13.93a9.88,9.88,0,1,1,7.84-18.13c10.26,4.44,20.46,9.37,30.31,14.66a9.88,9.88,0,1,1-9.35,17.4Zm-366.75-4.6a9.89,9.89,0,0,1,4.07-13.36c9.86-5.26,20.09-10.15,30.39-14.55A9.87,9.87,0,0,1,1168,49.9c-9.78,4.18-19.49,8.83-28.85,13.82a9.86,9.86,0,0,1-13.37-4.07Zm289-26.56c-10.23-2.81-20.71-5.22-31.15-7.15a9.88,9.88,0,1,1,3.59-19.43c11,2,22,4.57,32.81,7.54a9.88,9.88,0,1,1-5.25,19ZM1205,25.92a9.87,9.87,0,0,1,7-12.11c10.78-2.92,21.84-5.41,32.85-7.41a9.88,9.88,0,1,1,3.53,19.44c-10.47,1.9-21,4.27-31.23,7a10.27,10.27,0,0,1-2,.32A9.88,9.88,0,0,1,1205,25.92Zm127-5.82c-10.6-.46-21.36-.46-32,0a9.87,9.87,0,0,1-1-19.72h.21c11.19-.48,22.52-.48,33.68,0a9.88,9.88,0,0,1,.21,19.73C1332.7,20.11,1332.35,20.11,1332,20.1Z"/><path class="cls-3" d="M1077.14,102.9a9.79,9.79,0,0,0,5.51-2.11c4-3.17,8.11-6.31,12.25-9.33a9.88,9.88,0,0,0-11.65-15.95c-4.35,3.17-8.68,6.47-12.88,9.8a9.87,9.87,0,0,0,6.77,17.59Z"/></g><g class="cls-2"><path class="cls-3" d="M933.15,367.37a9.87,9.87,0,0,0,9.2-8.91c.48-5.07,1.08-10.21,1.78-15.29a9.88,9.88,0,1,0-19.57-2.69c-.73,5.34-1.37,10.76-1.88,16.1a9.87,9.87,0,0,0,8.89,10.77A9.29,9.29,0,0,0,933.15,367.37Z"/><path class="cls-3" d="M1320.6,789a9.88,9.88,0,1,1-.28-19.75c10.38-.15,20.92-.74,31.44-1.77a9.88,9.88,0,0,1,1.92,19.67q-6.84.66-13.65,1.09C1333.56,788.69,1327,788.94,1320.6,789Zm74.29-18a9.87,9.87,0,0,1,7.33-11.89c10.19-2.42,20.39-5.29,30.31-8.54a9.88,9.88,0,1,1,6.15,18.77c-10.45,3.43-21.18,6.45-31.9,9a10.87,10.87,0,0,1-1.67.25A9.87,9.87,0,0,1,1394.89,771Zm-128,15.11c-10.91-1.35-21.91-3.18-32.69-5.45a9.88,9.88,0,0,1,4.06-19.33c10.25,2.16,20.69,3.9,31,5.17a9.88,9.88,0,0,1-.58,19.66A9.48,9.48,0,0,1,1266.86,786.12Zm208.51-41.55a9.86,9.86,0,0,1,4.54-13.2c9.4-4.59,18.71-9.63,27.68-15a9.87,9.87,0,1,1,10.13,17c-9.44,5.65-19.25,11-29.14,15.79a10,10,0,0,1-3.71,1A9.87,9.87,0,0,1,1475.37,744.57ZM1182.42,766c-10.33-3.71-20.66-7.91-30.68-12.49a9.88,9.88,0,1,1,8.21-18c9.52,4.36,19.33,8.35,29.14,11.87a9.88,9.88,0,1,1-6.67,18.59Zm-78-38.13c-9.3-5.9-18.45-12.25-27.22-18.89a9.88,9.88,0,1,1,11.93-15.74c8.33,6.3,17,12.34,25.87,17.94a9.88,9.88,0,0,1-10.58,16.69Zm-67.82-54.23c-7.79-7.78-15.35-16-22.46-24.36a9.88,9.88,0,0,1,15.08-12.77c6.74,8,13.92,15.75,21.34,23.15a9.88,9.88,0,1,1-14,14Zm-54.37-67.73c-5.91-9.29-11.49-18.95-16.58-28.7a9.88,9.88,0,1,1,17.51-9.15c4.83,9.26,10.13,18.43,15.74,27.26a9.86,9.86,0,0,1-3,13.63,9.7,9.7,0,0,1-4.66,1.52A9.83,9.83,0,0,1,982.25,605.92Zm-38.18-78.06c-3.71-10.34-7-21-9.84-31.63a9.88,9.88,0,1,1,19.09-5.07c2.68,10.11,5.83,20.22,9.34,30.05a9.87,9.87,0,0,1-6,12.62,10.09,10.09,0,0,1-2.71.57A9.9,9.9,0,0,1,944.07,527.86ZM924,443.41c-1-8-1.78-16.2-2.29-24.27-.18-2.92-.34-5.83-.46-8.74a9.77,9.77,0,0,1,9.46-10.28A9.87,9.87,0,0,1,941,409.58c.12,2.76.26,5.54.44,8.31.48,7.67,1.21,15.43,2.17,23.07A9.89,9.89,0,0,1,935,452l-.61.05A9.87,9.87,0,0,1,924,443.41Z"/><path class="cls-3" d="M1556.58,704.6a9.89,9.89,0,0,0,5.55-2.15c4.17-3.35,8.35-6.84,12.42-10.4a9.87,9.87,0,1,0-13-14.88c-3.87,3.37-7.84,6.69-11.8,9.87a9.88,9.88,0,0,0,6.81,17.56Z"/></g><path class="cls-3" d="M1575.24,536.3a4.61,4.61,0,0,0,0-5.36l-32.54-45.8a244.93,244.93,0,0,0,18-77.23l49.37-26.74a4.61,4.61,0,0,0,2.35-4.82l-11-66.48a4.61,4.61,0,0,0-3.78-3.8l-55.37-9.37a244.39,244.39,0,0,0-41.94-67.29l16-53.86a4.61,4.61,0,0,0-1.74-5.07l-54.8-39.21a4.61,4.61,0,0,0-5.36,0L1408.6,163.8a244.59,244.59,0,0,0-77.23-18l-26.74-49.37a4.61,4.61,0,0,0-4.81-2.36l-66.49,11a4.6,4.6,0,0,0-3.79,3.78l-9.38,55.36a244.66,244.66,0,0,0-67.29,42l-53.86-16a4.63,4.63,0,0,0-5.07,1.74l-39.21,54.81a4.61,4.61,0,0,0,0,5.36l32.54,45.8a244.93,244.93,0,0,0-18,77.23l-49.37,26.75a4.62,4.62,0,0,0-2.36,4.81l11,66.48a4.61,4.61,0,0,0,3.78,3.8l55.37,9.37a244.44,244.44,0,0,0,41.94,67.3l-16,53.85a4.6,4.6,0,0,0,1.74,5.07l54.8,39.22a4.63,4.63,0,0,0,5.36,0l45.81-32.54a244.58,244.58,0,0,0,77.23,18l26.74,49.38a4.62,4.62,0,0,0,4.81,2.35l66.49-11a4.62,4.62,0,0,0,3.79-3.79l9.38-55.36a244.86,244.86,0,0,0,67.29-41.94l53.86,16a4.63,4.63,0,0,0,5.07-1.74Z"/><path class="cls-4" d="M1309.37,459a67.7,67.7,0,1,1,10,.1A67.81,67.81,0,0,1,1309.37,459Zm-27.94-107.15a51.94,51.94,0,1,0,37.86-12.12,53.69,53.69,0,0,0-7.71-.08A51.56,51.56,0,0,0,1281.43,351.88Z"/><path class="cls-4" d="M1324.14,556.86a169.79,169.79,0,0,0,17-1.94h0q2.68-.45,5.34-1a168.31,168.31,0,0,0,25.67-7.27l.34-.13,1-.37c.63-.23,1.25-.48,1.87-.72a4,4,0,0,0,2.49-3.92,3.72,3.72,0,0,0-.27-1.21,4,4,0,0,0-5.13-2.22,158.84,158.84,0,0,1-176.69-41.7,157.73,157.73,0,0,1-38.36-79.86,163,163,0,0,1-1.85-16.22,158.68,158.68,0,0,1,132.42-166.26c86.35-14.32,168.18,44.26,182.49,130.57a160.42,160.42,0,0,1,1.83,16,158.12,158.12,0,0,1-10.68,68,3.89,3.89,0,0,0-.27,1.7,4,4,0,0,0,7.62,1.2,166.15,166.15,0,0,0,11.22-71.43q-.54-8.43-1.92-16.82c-15-90.61-101-152.09-191.58-137.07a166.61,166.61,0,0,0-139,174.54,170.41,170.41,0,0,0,2,17,166.59,166.59,0,0,0,174.57,139Z"/><g class="cls-2"><path class="cls-3" d="M2053.28,659a6.1,6.1,0,0,0,5.56-4.75c1.14-5,2.15-10.2,3-15.32a6.1,6.1,0,0,0-12-2c-.8,4.88-1.75,9.79-2.84,14.61a6.11,6.11,0,0,0,4.61,7.3A6,6,0,0,0,2053.28,659Z"/><path class="cls-3" d="M2058.75,612.51a6.09,6.09,0,0,1-5.86-6.33,254,254,0,0,0-.33-25.59c-.11-1.79-.25-3.59-.4-5.39a6.11,6.11,0,0,1,5.57-6.59,6.32,6.32,0,0,1,6.59,5.57q.24,2.82.42,5.63a264.07,264.07,0,0,1,.33,26.84,6.08,6.08,0,0,1-5.7,5.85C2059.17,612.51,2059,612.52,2058.75,612.51Zm-11.08-68a251.67,251.67,0,0,0-8.19-29.87,6.1,6.1,0,1,1,11.55-3.95,267.48,267.48,0,0,1,8.59,31.32,6.1,6.1,0,0,1-4.73,7.22,6.5,6.5,0,0,1-.87.12A6.12,6.12,0,0,1,2047.67,544.55Zm-20-58.51a252,252,0,0,0-15.29-27,6.1,6.1,0,0,1,10.22-6.66,261.46,261.46,0,0,1,16,28.26,6.1,6.1,0,0,1-11,5.35Zm-33.79-51.8a251.52,251.52,0,0,0-21.41-22.38,6.1,6.1,0,0,1,8.28-9,264.93,264.93,0,0,1,22.45,23.48,6.1,6.1,0,0,1-9.32,7.87Zm-45.4-42a254.75,254.75,0,0,0-26.21-16.52,6.1,6.1,0,0,1,5.87-10.7,268.34,268.34,0,0,1,27.46,17.31,6.1,6.1,0,0,1-7.12,9.91Zm-54.22-29.69a250.14,250.14,0,0,0-29.42-9.61,6.11,6.11,0,0,1,3.07-11.82,262.75,262.75,0,0,1,30.85,10.09,6.1,6.1,0,0,1-1.87,11.76A6.19,6.19,0,0,1,1894.25,362.57Zm-59.81-15.52a250.57,250.57,0,0,0-30.9-2.1,6.11,6.11,0,0,1,.08-12.21A263,263,0,0,1,1836,335a6.1,6.1,0,0,1-.39,12.14A6.69,6.69,0,0,1,1834.44,347.05Zm-99.7.62a6.1,6.1,0,0,1,4.48-7.37,267.33,267.33,0,0,1,27.73-5.21c1.42-.19,2.83-.37,4.24-.53a6.1,6.1,0,1,1,1.41,12.12c-1.33.15-2.66.32-4,.51a250.24,250.24,0,0,0-26.48,5,5.67,5.67,0,0,1-1.06.16A6.1,6.1,0,0,1,1734.74,347.67Z"/></g><g class="cls-2"><path class="cls-3" d="M1814.79,859.42a267.79,267.79,0,0,1-31.93-.32,6.11,6.11,0,0,1,.87-12.18,251.44,251.44,0,0,0,30.45.31,6.1,6.1,0,0,1,.7,12.18Zm24.72-8.51a6.1,6.1,0,0,1,5-7,253.19,253.19,0,0,0,29.68-7,6.1,6.1,0,0,1,3.49,11.7,266.37,266.37,0,0,1-31.1,7.29c-.22,0-.43.06-.65.08A6.1,6.1,0,0,1,1839.51,850.91Zm-88.33,4a261.85,261.85,0,0,1-30.92-8,6.1,6.1,0,0,1,3.78-11.6,253.83,253.83,0,0,0,29.49,7.67,6.1,6.1,0,0,1-.78,12.07A6,6,0,0,1,1751.18,854.89Zm148.44-20.45a6.12,6.12,0,0,1,3.14-8,251.84,251.84,0,0,0,27.11-13.91A6.1,6.1,0,1,1,1936.1,823a262.88,262.88,0,0,1-28.44,14.6,6.34,6.34,0,0,1-2.06.5A6.11,6.11,0,0,1,1899.62,834.44Zm-209,.7a266.11,266.11,0,0,1-28.08-15.23,6.1,6.1,0,0,1,6.46-10.36,250.85,250.85,0,0,0,26.78,14.53,6.11,6.11,0,0,1-2.2,11.62A6.18,6.18,0,0,1,1690.57,835.14Zm-54.11-33.73a267.55,267.55,0,0,1-23.63-21.5,6.1,6.1,0,0,1,8.75-8.51,254.78,254.78,0,0,0,22.53,20.51,6.09,6.09,0,0,1,.92,8.58,6.09,6.09,0,0,1-8.57.92ZM1592,755.7a263.73,263.73,0,0,1-17.78-26.56,6.1,6.1,0,0,1,10.53-6.16,250,250,0,0,0,17,25.32,6.1,6.1,0,0,1-1.16,8.55,6,6,0,0,1-3.3,1.24A6.11,6.11,0,0,1,1592,755.7Z"/><path class="cls-3" d="M1959.43,806.12a6,6,0,0,0,3.34-1.26c4.13-3.19,8.19-6.53,12.06-9.9a6.11,6.11,0,0,0-8-9.2c-3.68,3.22-7.55,6.4-11.49,9.45a6.09,6.09,0,0,0,4.12,10.91Z"/></g><path class="cls-3" d="M1975.62,691.12a3.09,3.09,0,0,0,0-3.59l-21.78-30.65a163.87,163.87,0,0,0,12-51.68l33-17.89a3.08,3.08,0,0,0,1.57-3.22l-7.37-44.49a3.1,3.1,0,0,0-2.53-2.54l-37-6.27a163.49,163.49,0,0,0-28.07-45l10.72-36a3.08,3.08,0,0,0-1.17-3.39l-36.67-26.24a3.09,3.09,0,0,0-3.59,0l-30.65,21.77a163.87,163.87,0,0,0-51.68-12l-17.89-33a3.1,3.1,0,0,0-3.22-1.58l-44.49,7.38a3.08,3.08,0,0,0-2.54,2.53L1738,442.17a163.7,163.7,0,0,0-45,28.06l-36-10.71a3.08,3.08,0,0,0-3.39,1.16l-26.24,36.68a3.08,3.08,0,0,0,0,3.58l21.78,30.65a163.39,163.39,0,0,0-12,51.68l-33,17.9a3.09,3.09,0,0,0-1.58,3.22l7.38,44.49a3.09,3.09,0,0,0,2.53,2.54l37.05,6.27a163.85,163.85,0,0,0,28.06,45l-10.71,36a3.08,3.08,0,0,0,1.16,3.39l36.68,26.24a3.08,3.08,0,0,0,3.58,0l30.65-21.78a163.94,163.94,0,0,0,51.68,12l17.9,33a3.07,3.07,0,0,0,3.22,1.57l44.49-7.37a3.1,3.1,0,0,0,2.54-2.54l6.27-37a163.73,163.73,0,0,0,45-28.07L1946,729a3.09,3.09,0,0,0,3.39-1.17Z"/><path class="cls-4" d="M1797.65,640.22a45.95,45.95,0,1,1,6.84.07A47.37,47.37,0,0,1,1797.65,640.22Zm-30-48.8a33.93,33.93,0,0,0,31,36.64h0a33.94,33.94,0,0,0,5.62-67.65,34.55,34.55,0,0,0-5,0A34,34,0,0,0,1767.64,591.42Z"/><path class="cls-4" d="M1807.93,708.31a115.15,115.15,0,0,0,34.2-7.47l1-.38a6.12,6.12,0,0,0,3.85-6.06,6.18,6.18,0,0,0-.42-1.86,6.11,6.11,0,0,0-7.91-3.43,103.78,103.78,0,0,1-21.08,5.84h0l-1.18.19a101.81,101.81,0,0,1-50.09-4.71,103.53,103.53,0,0,1-24.55-12.74l-.18-.13-.57-.41a102.72,102.72,0,1,1,161.1-100.34,104.17,104.17,0,0,1,1.19,10.37,102.37,102.37,0,0,1-6.92,44,6.12,6.12,0,0,0,3.44,7.92,6.11,6.11,0,0,0,7.91-3.44,114.6,114.6,0,0,0,7.74-49.28A114.93,114.93,0,0,0,1686,600.67a117.22,117.22,0,0,0,1.35,11.74A115.08,115.08,0,0,0,1807.93,708.31Z"/><path class="cls-3" d="M2732.55,1290.58a33,33,0,0,0-34-32.41L1984.06,1281a33,33,0,0,0-31.93,34l35.25,1183.24a33,33,0,0,0,33.3,32l700.1-6.8a33,33,0,0,0,32.66-33.57Z"/><g class="cls-5"><path class="cls-6" d="M2658,1348.45H2021.8c-6.19,0-11.16,3.3-11.09,9.17l.6,55.54c.07,5.9,5.17,12.25,11.38,12.26l638,.51c6.32,0,11.21-6.85,11-12.8l-1.93-55.37C2669.59,1351.84,2664.32,1348.45,2658,1348.45Z"/><path class="cls-6" d="M2662.15,1468.15l-639-1.06c-6.22,0-11.19,5.92-11.13,11.84l.62,56.76c.06,6,5.17,11.58,11.41,11.6l640.81,1.77a11.35,11.35,0,0,0,11.09-11.64l-1.95-57.28C2673.81,1474.17,2668.48,1468.16,2662.15,1468.15Z"/><path class="cls-6" d="M2666.46,1596.11l-641.88-2.18c-6.25,0-11.27,2.86-11.21,8.83L2014,1660c.06,6,5.19,10.53,11.45,10.56l643.63,2.87c6.37,0,11.38-4.51,11.17-10.56l-2-57.79C2678.07,1599.08,2672.82,1596.13,2666.46,1596.11Z"/><path class="cls-6" d="M2670.67,1720.91,2026,1717.63c-6.27,0-11.31,4-11.24,10l.62,57.77c.07,6,5.2,9.45,11.49,9.49l646.46,4c6.4,0,11.48-3.34,11.27-9.44l-2-58.3C2682.36,1725.1,2677.05,1720.94,2670.67,1720.91Z"/><path class="cls-6" d="M2674.91,1846.8l-647.55-4.4a11.28,11.28,0,0,0-11.28,11.3l.63,58.27c.07,6.1,5.26,12.72,11.57,12.77l649.43,5.15c6.43,0,11.41-6.54,11.2-12.7l-2-58.82A12.29,12.29,0,0,0,2674.91,1846.8Z"/><path class="cls-6" d="M2679.19,1973.81l-650.42-5.55c-6.33,0-11.38,6.44-11.32,12.57l.64,58.79a12,12,0,0,0,11.61,11.7l652.31,6.31a11.25,11.25,0,0,0,11.29-11.6l-2-59.34C2691.07,1980.5,2685.63,1973.86,2679.19,1973.81Z"/><path class="cls-6" d="M2683.65,2106.38l-653.41-6.75c-6.35-.07-11.47,3.27-11.4,9.45l.64,59.32c.07,6.21,5.28,10.55,11.65,10.62l655.22,7.48c6.49.08,11.6-4.19,11.39-10.46l-2-59.88C2695.48,2109.92,2690.12,2106.44,2683.65,2106.38Z"/><path class="cls-6" d="M2688,2235.69l-656.34-7.93c-6.38-.08-11.5,4.49-11.43,10.72l.64,59.85c.07,6.26,5.29,9.44,11.69,9.53l658.16,8.67c6.52.08,11.7-3,11.48-9.31l-2.06-60.42C2699.93,2240.5,2694.51,2235.76,2688,2235.69Z"/><path class="cls-6" d="M2692.4,2366.15,2033.12,2357c-6.41-.09-11.54,5.73-11.47,12l.65,60.38c.07,6.33,5.35,12.82,11.78,12.91l661.22,9.93c6.55.1,11.64-6.3,11.42-12.68l-2.08-61C2704.43,2372.26,2698.93,2366.24,2692.4,2366.15Z"/></g><path class="cls-7" d="M1126.52,2506.82s236-1448.51-368.32-2486.38a21.52,21.52,0,0,0-36.14-1.75C578.67,220.22-271.22,1531.21,1126.52,2506.82Z"/><path class="cls-8" d="M704.12,442.55s-.87,7.95-2.08,22.95-2.83,37-4.42,65-3,62.12-4.15,101.22c-.33,19.56-1,40.36-1,62.31q-.13,16.45-.28,33.74.06,17.28.12,35.34c0,12,.17,24.32.43,36.84s.46,25.27.69,38.24q.64,19.46,1.3,39.55.33,10.05.67,20.24c.32,6.78.65,13.63,1,20.51q1,20.67,2,41.86c.78,14.13,1.81,28.42,2.73,42.86,1.67,28.91,4.2,58.38,6.56,88.37,1.06,15,2.8,30.07,4.22,45.28s2.88,30.52,4.6,45.9,3.62,30.84,5.45,46.38q1.37,11.65,2.74,23.37,1.62,11.68,3.22,23.41,3.24,23.46,6.51,47.1c2.17,15.74,4.93,31.45,7.37,47.24,2.6,15.76,4.9,31.61,7.74,47.38s5.74,31.54,8.62,47.31l4.25,23.68c1.44,7.88,3.16,15.71,4.73,23.56q4.82,23.55,9.61,47c3,15.69,6.82,31.18,10.35,46.68s7.12,30.93,10.67,46.31c7.55,30.65,15.64,60.91,23.3,90.89q12.89,44.6,25.42,88,13.72,43,26.94,84.37l28.1,80c9.62,25.83,19.58,50.72,28.88,74.93,2.37,6,4.63,12.06,7,18l7.46,17.42q7.38,17.25,14.49,33.85t13.9,32.47q7.33,15.63,14.32,30.53l26.44,56.39q13.42,26.08,25.07,48.7,5.8,11.3,11.13,21.64c3.57,6.89,6.85,13.53,10.42,19.57l43.32,76.91,0,.08a2.18,2.18,0,0,1-3.78,2.18l-44.92-76.21c-3.67-6-7.07-12.61-10.74-19.46s-7.51-14-11.51-21.52l-25.9-48.45-27.39-56.15q-7.2-14.87-14.75-30.46l-14.26-32.45L936,2109.62l-7.65-17.41c-2.47-5.9-4.79-11.92-7.23-18-9.57-24.2-19.8-49.1-29.7-74.93q-14.13-39-29-80.07l-27.51-84.56q-12.71-43.45-25.79-88.24c-7.79-30.07-16-60.43-23.68-91.17q-5.41-23.15-10.86-46.46c-3.59-15.55-7.45-31.08-10.54-46.82q-4.89-23.55-9.79-47.18c-1.6-7.88-3.35-15.73-4.82-23.64l-4.35-23.75q-4.29-23.76-8.57-47.5c-2.8-15.84-5.06-31.75-7.61-47.57-2.4-15.86-5.13-31.63-7.25-47.44s-4.26-31.57-6.37-47.27q-1.59-11.78-3.16-23.5-1.33-11.76-2.68-23.46l-5.31-46.54c-1.68-15.44-3-30.82-4.47-46.07s-3.07-30.38-4.09-45.43c-2.22-30.09-4.82-59.65-6.19-88.66-.77-14.5-1.67-28.83-2.32-43s-1.1-28.19-1.64-42q-.39-10.37-.77-20.59t-.47-20.29q-.46-20.15-.92-39.66-.16-19.51-.32-38.34c-.14-12.56-.2-24.87-.07-36.94,0-48.26,1.38-92.49,2.87-131.66,1.75-39.17,3.62-73.29,5.77-101.36,2-28.08,4.16-50.1,5.7-65.1s2.59-23,2.59-23v0a2.18,2.18,0,0,1,4.33.53Z"/><path class="cls-3" d="M912.58,2648.41S907.37,958.08,109.66,460.72a25.88,25.88,0,0,0-38.19,13.73C9.37,658.34-255.11,1656.73,912.58,2648.41Z"/><path class="cls-8" d="M176.35,757.47s7,29.95,20.71,82c6.85,26,15.4,57.61,25.62,93.7s22.09,76.73,35.48,120.92,28.41,91.91,44.9,142.18c8.09,25.18,16.89,50.9,25.61,77.27,9.07,26.25,18.06,53.17,27.71,80.36s19.3,54.91,29.53,82.79c10,28,20.56,56.11,31.18,84.49l8,21.32,8.21,21.33q8.21,21.35,16.47,42.82c11.13,28.57,22.6,57.13,34.09,85.69,11.8,28.42,23.33,57,35.31,85.18l18,42.19q4.51,10.51,9,21t9.2,20.82c12.34,27.67,24.24,55.26,36.72,82.21s24.28,53.79,36.74,79.8q9.21,19.58,18.27,38.81l8.93,19.16q4.56,9.48,9.09,18.86c12.11,25,23.68,49.55,35.46,73.21q8.86,17.74,17.46,35l16.74,34,32.66,64.14c10.35,20.62,20.85,40.09,30.66,58.68s18.83,36.41,27.75,52.9l46.29,85.38c13.07,23.54,23.33,42.05,30.33,54.66l10.64,19.41,0,0a2.51,2.51,0,0,1-4.34,2.5l-11.51-18.92L865,2507.79c-7.08-11.49-14.32-24.54-22.4-38.64l-26.06-45.71c-18.26-32.82-38.79-69.92-60.13-110.94q-16-30.77-33.29-64-8.39-16.71-17.06-34l-17.38-35.11c-23.06-47.7-47.39-98-71-150.73-23.87-52.62-47.79-107.34-71.33-163.26-12-27.85-23.22-56.31-35.11-84.6-11.72-28.37-23-57-34.52-85.61q-16.8-43.05-33.55-86-8.19-21.49-16.34-42.92L418.64,1545l-7.9-21.38c-10.55-28.43-21-56.65-30.93-84.66-10.14-27.94-19.78-55.68-29.27-83s-18.47-54.22-27.46-80.52c-8.64-26.42-17.36-52.18-25.37-77.41-16.34-50.37-31-98.22-44.45-142.44-13.2-44.28-25.14-84.92-35.31-121.06s-18.82-67.71-25.7-93.78c-13.79-52.11-20.77-82.16-20.77-82.16a2.5,2.5,0,0,1,4.87-1.15Z"/><path class="cls-3" d="M2295.88,943.12A27.47,27.47,0,0,0,2266,916.36l-764.21,66.19c-14.21,1.24-25.56,13.13-25.56,27.39V2546.2c0,15.18,13.19,26.34,28.37,26.34h800.26c7.4,0,14.49-2.41,19.66-7.7a26.82,26.82,0,0,0,7.82-19.55Z"/><g class="cls-9"><path class="cls-4" d="M1627.61,1058.33l-58.33,4c-6.39.41-9.66,6.32-9.66,13.18V2476.79c0,7,1.42,15.34,7.88,15.34h60.88c6.5,0,11.84-7,11.83-14.06l-.87-1407.37C1639.34,1063.8,1634,1057.9,1627.61,1058.33Z"/><path class="cls-10" d="M1769.12,1049.05l-61,4c-6.48.42-12.72,6.43-12.71,13.34L1696.85,2478c0,7.06,6.33,14.1,12.88,14.1h61.67c6.59,0,11-7.06,11-14.15L1780,1061.55C1780,1054.62,1775.63,1048.62,1769.12,1049.05Z"/><path class="cls-4" d="M1912.47,1039.65l-61.82,4c-6.56.43-10.34,6.32-10.32,13.27l3,1421c0,7.1,3.86,14.18,10.49,14.18h62.49c6.67,0,13.69-7.1,13.67-14.23l-3.92-1425.84C1926,1045.08,1919.07,1039.21,1912.47,1039.65Z"/><path class="cls-4" d="M2057.7,1030.12l-62.63,4.11c-6.64.44-11.5,6.43-11.48,13.43l4.55,1430.2c0,7.15,5,14.27,11.68,14.27h63.33c6.76,0,12.81-7.14,12.79-14.32l-5.49-1435.14C2070.42,1035.65,2064.39,1029.68,2057.7,1030.12Z"/><path class="cls-4" d="M2204.85,1020.47l-63.45,4.16a14,14,0,0,0-12.67,13.59l6.13,1439.56c0,7.19,6.11,14.35,12.91,14.35h64.17c6.86,0,11.92-7.18,11.89-14.4l-7.1-1444.57C2216.7,1026.09,2211.63,1020,2204.85,1020.47Z"/></g><path class="cls-4" d="M1697.56,1262.51a29.76,29.76,0,0,0-31-29.32L1057,1257.63a19.18,19.18,0,0,0-18.41,19.62l30.94,1303.13,616.37-7.52a29.76,29.76,0,0,0,29.39-30.18Z"/><g class="cls-11"><polygon class="cls-6" points="1206.63 1502.69 1108.54 1502.72 1107.38 1335.07 1205.69 1335.07 1206.63 1502.69"/><polygon class="cls-6" points="1347.44 1502.38 1249.71 1502.41 1248.86 1335.07 1346.8 1335.07 1347.44 1502.38"/><polygon class="cls-6" points="1495.5 1502.05 1398.16 1502.08 1397.63 1335.07 1495.19 1335.07 1495.5 1502.05"/><polygon class="cls-6" points="1643.22 1502.12 1544.19 1501.95 1541.92 1335.07 1643.22 1335.07 1643.22 1502.12"/><polygon class="cls-6" points="1207.97 1740.73 1110.19 1741.25 1109.04 1574.84 1207.04 1574.53 1207.97 1740.73"/><polygon class="cls-6" points="1348.34 1739.98 1250.92 1740.5 1250.07 1574.39 1347.71 1574.08 1348.34 1739.98"/><polygon class="cls-6" points="1495.94 1739.19 1398.9 1739.71 1398.38 1573.92 1495.63 1573.62 1495.94 1739.19"/><polygon class="cls-6" points="1643.22 1738.42 1544.49 1738.94 1545.31 1573.47 1643.22 1573.16 1643.22 1738.42"/><polygon class="cls-6" points="1209.35 1984.76 1111.88 1985.6 1110.73 1820.25 1208.42 1819.62 1209.35 1984.76"/><polygon class="cls-6" points="1349.27 1983.56 1252.16 1984.39 1251.32 1819.35 1348.64 1818.72 1349.27 1983.56"/><polygon class="cls-6" points="1496.4 1982.3 1399.67 1983.13 1399.15 1818.4 1496.09 1817.78 1496.4 1982.3"/><polygon class="cls-6" points="1643.22 1981.07 1544.8 1981.9 1545.62 1817.48 1643.22 1816.87 1643.22 1981.07"/><polygon class="cls-6" points="1210.69 2223.34 1113.53 2224.48 1112.42 2064.09 1209.79 2063.15 1210.69 2223.34"/><polygon class="cls-6" points="1350.17 2221.71 1253.37 2222.84 1252.56 2062.74 1349.57 2061.81 1350.17 2221.71"/><polygon class="cls-6" points="1496.84 2219.99 1400.41 2221.12 1399.91 2061.32 1496.55 2060.39 1496.84 2219.99"/><polygon class="cls-6" points="1643.22 2218.32 1545.1 2219.44 1545.92 2059.95 1643.22 2059.02 1643.22 2218.32"/><polygon class="cls-6" points="1212.05 2464.31 1115.2 2465.76 1114.1 2306.38 1211.16 2305.13 1212.05 2464.31"/><polygon class="cls-6" points="1351.09 2462.24 1254.59 2463.68 1253.78 2304.59 1350.48 2303.35 1351.09 2462.24"/><polygon class="cls-6" points="1497.29 2460.05 1401.17 2461.49 1400.67 2302.7 1497 2301.47 1497.29 2460.05"/><polygon class="cls-6" points="1643.22 2457.94 1545.4 2459.37 1546.23 2300.88 1643.22 2299.65 1643.22 2457.94"/></g><rect class="cls-12" x="262.61" y="1150.11" width="963.52" height="678.85" rx="21.67"/><rect class="cls-13" x="300.06" y="1150.11" width="963.52" height="678.85" rx="21.67"/><path class="cls-6" d="M575.08,1739.58c-7.41,0-13.67-.09-18.63-.19a17,17,0,0,1-4.17-33.44c44-12.34,92-33.32,127.39-50.3-168.59-13.74-202.25-100.33-208.75-139.94-16.41-99.88,70.28-212.9,193.24-251.94C789.65,1224,916.75,1238.3,988,1300.33c37.88,33,79,96.09,59.59,209.68C1011.39,1722.55,679.94,1739.58,575.08,1739.58Zm-14.49-4.19h0Zm-3.51-26.6h0Zm243.59-83.11-53.42,29.78a1169.15,1169.15,0,0,1-107,51.55c130.16-7.85,350.36-44.62,377.21-202.13,13.63-80-3-141-49.51-181.46-72.1-62.77-199.87-60.52-294.53-30.49-107.21,34-186.12,133.78-172.31,217.82,12.53,76.29,99.41,119,238.41,116Z"/><rect class="cls-14" x="274.36" y="351.9" width="963.52" height="678.85" rx="21.67"/><rect class="cls-14" x="311.68" y="355.25" width="963.52" height="678.85" rx="21.67"/><path class="cls-15" d="M1004.9,934.58H550.76a67.56,67.56,0,0,1-67.48-67.49V516.37a67.56,67.56,0,0,1,67.48-67.49H1004.9a67.56,67.56,0,0,1,67.49,67.49V867.09A67.57,67.57,0,0,1,1004.9,934.58ZM550.76,472.29a44.13,44.13,0,0,0-44.08,44.08V867.09a44.14,44.14,0,0,0,44.08,44.08H1004.9A44.13,44.13,0,0,0,1049,867.09V516.37a44.12,44.12,0,0,0-44.08-44.08Z"/><polygon class="cls-16" points="776.77 693 503.02 487.63 517.07 468.9 777.16 664.02 1043.84 474.86 1057.38 493.95 776.77 693"/><rect class="cls-17" x="953.75" y="582.84" width="23.41" height="346.55" transform="translate(-246.95 572.06) rotate(-29.43)"/><rect class="cls-18" x="416.65" y="740.99" width="346.54" height="23.41" transform="translate(-354.09 905.68) rotate(-61.12)"/><rect class="cls-14" x="262.61" y="1966.97" width="963.52" height="678.85" rx="21.67"/><rect class="cls-14" x="300.06" y="1966.97" width="963.52" height="678.85" rx="21.67"/><path class="cls-19" d="M932.6,2548.48c-37.57,0-81.75-17.62-131.69-52.58h0c-33-23.12-177.14-167.23-200.26-200.25C559,2236.13,542,2184.8,550,2143.07c5.21-27,21.22-49.87,46.3-66.23l21.92-14.31a35.68,35.68,0,0,1,49,10l60.54,90.81a41.05,41.05,0,0,1-10.39,56.48l-.42.29-10.44,6.77a36.41,36.41,0,0,0-5,57.17l.3.29L812.45,2395a36.42,36.42,0,0,0,57.19-5l7.05-10.84a41,41,0,0,1,56.49-10.39l90.8,60.53a35.66,35.66,0,0,1,10.06,49l-14.31,21.93c-16.36,25.07-39.26,41.08-66.23,46.3A109.85,109.85,0,0,1,932.6,2548.48Zm-118.27-71.76c54.13,37.9,99.47,53.65,134.72,46.83,20.9-4,38.08-16.19,51.07-36.11l14.31-21.93a12.18,12.18,0,0,0-3.43-16.73l-90.81-60.53a17.74,17.74,0,0,0-24.3,4.31l-6.62,10.21a59.83,59.83,0,0,1-93.8,8.33l-110-110a59.81,59.81,0,0,1,8.34-93.79l10.2-6.62a17.76,17.76,0,0,0,4.32-24.3l-60.54-90.81a12.2,12.2,0,0,0-16.73-3.43l-21.92,14.31c-19.92,13-32.07,30.17-36.11,51.07-6.82,35.26,8.93,80.58,46.81,134.7,21.71,31,163.5,172.79,194.51,194.5Z"/><path class="cls-12" d="M1915.12,1940.31c-.36,0-.72,0-1.09,0l-472.59-.49a21.34,21.34,0,0,1-21.13-21.55c0-11.9,9.53-21.73,21.18-21.51l472.59.48a21.55,21.55,0,0,1,1,43Z"/><path class="cls-12" d="M1258.42,1468.28c.16.32.33.65.48,1l198.84,437.26a21.73,21.73,0,0,1-10.25,28.63,20.87,20.87,0,0,1-28.06-10.51l-198.84-437.27a21.73,21.73,0,0,1,10.25-28.63A21,21,0,0,1,1258.42,1468.28Z"/><path class="cls-13" d="M1960.57,2643.12a478.19,478.19,0,0,1,5.77,50.24,21.63,21.63,0,0,1-19.5,22.83c-40.34,3.92-132.17,11.14-190.8,2.68a9.84,9.84,0,0,1-5.4-16.93c24.17-22.53,82.56-66.34,178.66-75.92Z"/><path class="cls-20" d="M1980.62,2591.35l-20.39,50a16.67,16.67,0,0,1-17.11,10.34,90.51,90.51,0,0,1-16.66-3.23,21.88,21.88,0,0,1-14.55-27.22l15.39-51.49Z"/><path class="cls-13" d="M2329.33,2682.94s-40.84,34.17-56.75,78c-4.38,12.05,4.87,24.75,17.7,24.75h84a19.82,19.82,0,0,0,19.6-23.18C2388.56,2732.25,2373.12,2683.06,2329.33,2682.94Z"/><path class="cls-21" d="M2379.93,2638.46s-8.25,36.52-14.59,60.65a7.72,7.72,0,0,1-10.09,5.26c-12.72-4.55-23.07-6.56-30.6-5.55a6,6,0,0,1-6.56-5.93l-.79-60.65Z"/><path class="cls-12" d="M2162.71,1816.8l-248.43,757.89s47.65,31.2,70.35,29.9l295.08-609.08s51.63,375.29,26.61,644.73l84.52,6.45s137.43-688.54,33.34-924.37Z"/><path class="cls-12" d="M2278.11,1989l.3,0a2.41,2.41,0,0,0,2.09-2.69l-9.64-76.52a2.42,2.42,0,0,0-2.69-2.08,2.39,2.39,0,0,0-2.08,2.68l9.64,76.53A2.4,2.4,0,0,0,2278.11,1989Z"/><path class="cls-13" d="M2116.13,1149.9s201.28,17.87,172.81,161.28c0,0,111.25,209.38,163.27,456a14.5,14.5,0,0,1-11.77,17.24l-335.19,57.39a18,18,0,0,1-20.51-13.26L2004.65,1519,1973.45,1663l-99.17-25.84,83.48-422.86S1969.41,1152.55,2116.13,1149.9Z"/><path class="cls-22" d="M2003,1505.2a2.46,2.46,0,0,0,.53-.06,2.49,2.49,0,0,0,1.91-3l-27.94-128.29a2.5,2.5,0,1,0-4.88,1.06l27.94,128.3A2.51,2.51,0,0,0,2003,1505.2Z"/><path class="cls-23" d="M2023.18,1887a47.88,47.88,0,0,1,34.61-4.5l23.32,5.81a8.45,8.45,0,0,0,10.44-7.26l24.14-214.8c30.17,14.33,73.71,12.61,88.06,11.56L2148.21,1931H1953.83Z"/><path class="cls-24" d="M1506.73,1421l5.88-19.52a38.64,38.64,0,0,1,22.57-24.71l106.26-42.73s1.6-13.63-22.45-22.89-18.43-36.2-18.43-36.2,32.86,15,81,38.77c27.52,13.6,43,37.61,51.14,55.68L1973.45,1663l-28.27,19.43a75.48,75.48,0,0,1-109.43-26.86L1705.32,1405.4C1639.83,1425.07,1573.56,1428.83,1506.73,1421Z"/><path class="cls-25" d="M2050.93,1013l61.9,173.26s-54.81,42.85-94.82,28.36l-31.19-99.31S2010.64,993.89,2050.93,1013Z"/><path class="cls-26" d="M1866.17,950.75c0,2.67,59.63,168.81,59.63,168.81l94.14-36.07-33.12-165.86S1866.17,906.05,1866.17,950.75Z"/><path class="cls-12" d="M1970.31,958l24.27,85.94a12.39,12.39,0,0,1,.47,3.36c0,7-1.72,31.13-26.29,27.85-22.3-3-42.69-5.36-55.66.75a12.47,12.47,0,0,0-6.43,15.5c5.42,15.09,18.27,48.88,33.91,76.53a12.44,12.44,0,0,0,16,5.12c17.68-8,54.5-26,80.72-47.48a12.48,12.48,0,0,0,4.42-12c-4.13-22-16.42-88.86-17-108-.51-18,19.67-31.72,28.56-36.88a12.27,12.27,0,0,0,5.78-7.76c2.79-11.57,5.15-37.78-28.27-43.55a12.5,12.5,0,0,1-10.14-14.86c2.83-13.85,1.93-34.22-24.37-41.73-26.72-7.63-43.54,8.46-52.09,20.8a12.51,12.51,0,0,1-15.48,4.13c-3.15-1.41-7-1.48-11.06,2a12.28,12.28,0,0,1-18-2.74c-7.8-11.47-22-22.92-45.92-15.16-42.54,13.76-40.5,62.8-24.91,89.45s60.85,9.12,82.28-8.54c16.29-13.44,41.1-5.4,52.06-.78A12.4,12.4,0,0,1,1970.31,958Z"/><path class="cls-27" d="M2033.29,1037s-25.18-47.61-8.53-62.57,44.85-12.5,44.09,24.73C2067.9,1045.47,2033.29,1037,2033.29,1037Z"/><path class="cls-28" d="M2184.22,1681a240.19,240.19,0,0,0,24.6-1.16l1.79-.2,73.29-341.7a2.5,2.5,0,1,0-4.88-1L2206.49,1675c-10.91,1-69.15,4.83-99.9-17l63.49-296.88-13.25-25a2.5,2.5,0,0,0-4.41,2.34l12.4,23.37L2101,1660.19l1.27,1C2124.53,1677.84,2160.32,1681,2184.22,1681Z"/><path class="cls-29" d="M1783.21,1980.4c1.91,6.5,184.94,568.78,231.34,711.33,5.35,16.43-9.59,32.56-30.11,32.56-14.32,0-26.79-8.08-30.26-19.59L1751,2029.94Z"/><path class="cls-29" d="M1683,1980.4c-1.91,6.5-184.93,568.78-231.34,711.33-5.35,16.43,9.59,32.56,30.12,32.56,14.31,0,26.78-8.08,30.25-19.59l203.17-674.76Z"/><path class="cls-29" d="M1675.36,1958h114v91.54a23.69,23.69,0,0,1-23.54,23.82h-15.64v205.61a17.82,17.82,0,1,1-35.64,0V2073.32h-7.93a31.43,31.43,0,0,1-31.24-31.62Z"/><path class="cls-29" d="M2137.59,1936H1340c-11.14,0-20.88,6.09-23.67,14.81l-11.13,34.84c-4,12.54,7.77,24.75,23.81,24.68l818.4-3.8c15.86-.08,27.44-12.14,23.56-24.57l-9.68-31C2158.56,1942.12,2148.79,1936,2137.59,1936Z"/></g></g></svg>